<svg width="38" height="39" viewBox="0 0 38 39" fill="none" xmlns="http://www.w3.org/2000/svg">
<g clip-path="url(#clip0_815_21131)">
<path d="M26.5345 0.859375C26.6213 0.859375 26.7081 0.859375 26.7998 0.859375C27.0126 3.48856 26.009 5.45308 24.7894 6.87573C23.5927 8.28855 21.9539 9.6588 19.3035 9.45089C19.1267 6.85936 20.1318 5.04053 21.3498 3.62117C22.4794 2.29839 24.5504 1.12131 26.5345 0.859375Z" fill="white"/>
<path d="M34.5575 28.2233C34.5575 28.2495 34.5575 28.2724 34.5575 28.297C33.8127 30.5529 32.7502 32.4863 31.4536 34.2806C30.27 35.9095 28.8195 38.1016 26.2296 38.1016C23.9917 38.1016 22.5052 36.6626 20.2116 36.6233C17.7854 36.584 16.4512 37.8266 14.2329 38.1392C13.9792 38.1392 13.7254 38.1392 13.4766 38.1392C11.8476 37.9035 10.5331 36.6135 9.57535 35.4511C6.75134 32.0165 4.56909 27.5799 4.16309 21.9025C4.16309 21.3458 4.16309 20.7909 4.16309 20.2343C4.33498 16.171 6.30933 12.8673 8.9336 11.2662C10.3186 10.4149 12.2225 9.68968 14.3426 10.0138C15.2512 10.1546 16.1794 10.4657 16.9931 10.7734C17.7641 11.0698 18.7284 11.5953 19.6419 11.5674C20.2607 11.5494 20.8763 11.2269 21.5 10.9994C23.327 10.3396 25.118 9.58327 27.4787 9.93852C30.3158 10.3674 32.3294 11.628 33.5736 13.5729C31.1736 15.1003 29.2762 17.4021 29.6004 21.3328C29.8885 24.9033 31.9644 26.9922 34.5575 28.2233Z" fill="white"/>
</g>
<defs>
<clipPath id="clip0_815_21131">
<rect width="37.2817" height="37.2817" fill="white" transform="translate(0.71875 0.859375)"/>
</clipPath>
</defs>
</svg>
