<svg width="35" height="35" viewBox="0 0 35 35" fill="none" xmlns="http://www.w3.org/2000/svg">
<path d="M17.5001 6.76739C20.0076 6.72881 22.4326 7.66298 24.2662 9.37387L29.2049 4.54456C26.0363 1.57552 21.842 -0.0525367 17.5001 0.00129356C14.256 0.000543951 11.0756 0.902267 8.31461 2.60562C5.55364 4.30897 3.32095 6.7468 1.86621 9.64647L7.5251 14.04C8.21704 11.936 9.55195 10.1024 11.3416 8.79757C13.1312 7.49277 15.2853 6.78266 17.5001 6.76739Z" fill="#EA4335"/>
<path d="M34.3009 17.8899C34.3216 16.6869 34.1973 15.4858 33.9308 14.3125H17.501V20.8077H27.1462C26.9632 21.9464 26.5518 23.0364 25.9367 24.0121C25.3217 24.9878 24.5156 25.829 23.5671 26.4851L29.0897 30.7625C30.8108 29.1008 32.1643 27.0966 33.0628 24.8793C33.9613 22.662 34.3848 20.281 34.306 17.8899H34.3009Z" fill="#4285F4"/>
<path d="M7.54576 20.9606C7.16314 19.8466 6.96589 18.6773 6.96186 17.4993C6.96884 16.3233 7.15902 15.1555 7.52557 14.038L1.86668 9.64453C0.639315 12.0813 0 14.7718 0 17.5002C0 20.2286 0.639315 22.919 1.86668 25.3558L7.54576 20.9606Z" fill="#FBBC05"/>
<path d="M17.5004 34.9996C21.7631 35.1202 25.9101 33.6034 29.0891 30.7609L23.5665 26.4835C21.7759 27.684 19.6553 28.2957 17.5004 28.2335C15.2875 28.2204 13.135 27.5108 11.3482 26.2054C9.56132 24.9 8.23089 23.065 7.5456 20.9609L1.88672 25.3561C3.33753 28.2545 5.56657 30.6918 8.32421 32.395C11.0818 34.0982 14.2592 35.0001 17.5004 34.9996Z" fill="#34A853"/>
</svg>
