<svg width="19" height="20" viewBox="0 0 19 20" fill="none" xmlns="http://www.w3.org/2000/svg">
<path fill-rule="evenodd" clip-rule="evenodd" d="M13.6467 17.3509C15.0385 17.1143 16.2228 16.2685 16.9155 15.0974L16.3674 14.781L16.7657 14.0912L17.2624 14.3779C17.4613 13.8559 17.5702 13.2894 17.5702 12.6975C17.5702 11.9756 17.4082 11.2914 17.1184 10.6796L16.5671 10.9979L16.1688 10.3081L16.7179 9.99114C15.9479 8.89279 14.7221 8.1374 13.3151 7.99976V8.51591H12.5186V7.98858C11.0767 8.08854 9.81313 8.83602 9.0166 9.94225L9.53493 10.2415L9.13668 10.9313L8.60728 10.6256C8.30126 11.2511 8.12947 11.9543 8.12947 12.6975C8.12947 13.3259 8.25225 13.9255 8.47512 14.4739L9.13687 14.0918L9.53512 14.7816L8.83707 15.1846C9.66976 16.5253 11.1556 17.4179 12.8499 17.4179H12.8502V16.4145H13.6467V17.3509ZM18.4917 12.6975C18.4917 9.73824 16.2133 7.31111 13.3151 7.07457V7.05566H12.8499H12.5186V7.06523C9.55685 7.23673 7.20801 9.69282 7.20801 12.6975C7.20801 15.8134 9.73395 18.3394 12.8499 18.3394C15.9658 18.3394 18.4917 15.8134 18.4917 12.6975Z" fill="white" fill-opacity="0.8"/>
<path fill-rule="evenodd" clip-rule="evenodd" d="M8.77689 0.10556L8.56836 0L8.36002 0.105909L0.395052 4.15477L0.186425 4.26082L0.149021 4.49184C-0.1445 6.30477 -0.0816719 9.18103 1.05046 11.9758C2.18896 14.7863 4.41028 17.5129 8.4111 18.9703L8.55081 19.0212L8.69391 18.9808C9.56789 18.7342 10.3504 18.4176 11.051 18.0446C10.6704 17.9166 10.3079 17.7492 9.96849 17.5472C9.53902 17.7378 9.07914 17.9073 8.58664 18.0527C4.95002 16.6841 2.94478 14.1978 1.90451 11.6298C0.891823 9.12991 0.795012 6.55139 1.02449 4.86849L8.56923 1.03325L16.1035 4.84728C16.0951 5.70296 16.0782 6.79213 15.9533 7.98321C16.2574 8.18388 16.5409 8.4132 16.8 8.66732C17.0042 7.12305 17.017 5.72243 17.0262 4.72444L17.0277 4.56997L17.0304 4.28371L16.775 4.15442L8.77689 0.10556Z" fill="white" fill-opacity="0.8"/>
<path d="M10.749 11.8185L12.5411 13.3783L15.7271 9.95996" stroke="white" stroke-opacity="0.8" stroke-width="0.796497"/>
</svg>
