<svg width="24" height="16" viewBox="0 0 24 16" fill="none" xmlns="http://www.w3.org/2000/svg">
<path d="M22.6666 6.66673H5.10657L8.94657 2.82673C9.19587 2.57743 9.33593 2.2393 9.33593 1.88673C9.33593 1.53417 9.19587 1.19604 8.94657 0.946734C8.69726 0.697431 8.35914 0.557373 8.00657 0.557373C7.654 0.557373 7.31587 0.697431 7.06657 0.946734L0.946566 7.06673C0.822961 7.19009 0.724898 7.3366 0.657989 7.4979C0.591081 7.6592 0.556641 7.83211 0.556641 8.00673C0.556641 8.18136 0.591081 8.35427 0.657989 8.51557C0.724898 8.67686 0.822961 8.82338 0.946566 8.94673L7.06657 15.0667C7.19001 15.1902 7.33656 15.2881 7.49784 15.3549C7.65913 15.4217 7.83199 15.4561 8.00657 15.4561C8.18114 15.4561 8.35401 15.4217 8.51529 15.3549C8.67658 15.2881 8.82312 15.1902 8.94657 15.0667C9.07001 14.9433 9.16793 14.7967 9.23474 14.6355C9.30154 14.4742 9.33593 14.3013 9.33593 14.1267C9.33593 13.9522 9.30154 13.7793 9.23474 13.618C9.16793 13.4567 9.07001 13.3102 8.94657 13.1867L5.10657 9.3334H22.6666C23.3999 9.3334 23.9999 8.7334 23.9999 8.00007C23.9999 7.26673 23.3999 6.66673 22.6666 6.66673Z" fill="white"/>
</svg>
