<svg width="333" height="262" viewBox="0 0 333 262" fill="none" xmlns="http://www.w3.org/2000/svg">
<path opacity="0.7" d="M165.219 213.42C189.038 213.42 208.347 165.701 208.347 106.837C208.347 47.9728 189.038 0.254028 165.219 0.254028C141.399 0.254028 122.09 47.9728 122.09 106.837C122.09 165.701 141.399 213.42 165.219 213.42Z" fill="#AC73FD"/>
<g opacity="0.6">
<path d="M165.47 212.858C185.391 204.022 183.805 156.949 161.927 107.718C140.05 58.4875 106.165 25.7411 86.2441 34.5773C66.323 43.4135 67.9092 90.4861 89.7869 139.717C111.665 188.948 145.549 221.694 165.47 212.858Z" fill="#AC73FD"/>
</g>
<g opacity="0.7">
<path d="M165.566 212.783C178.594 199.63 162.755 162.865 130.188 130.668C97.6204 98.4699 60.6578 83.0313 47.6293 96.1847C34.6008 109.338 50.44 146.102 83.0072 178.3C115.574 210.498 152.537 225.937 165.566 212.783Z" fill="#AC73FD"/>
</g>
<g opacity="0.6">
<path d="M165.773 212.381C173.372 195.505 145.659 166.601 103.874 147.823C62.0895 129.044 22.0564 127.501 14.4578 144.378C6.85913 161.254 34.5724 190.158 76.3571 208.937C118.142 227.715 158.175 229.258 165.773 212.381Z" fill="#AC73FD"/>
</g>
<g opacity="0.6">
<path opacity="0.7" d="M243.072 139.74C264.95 90.5093 266.536 43.4366 246.615 34.6005C226.694 25.7643 192.809 58.5107 170.931 107.742C149.054 156.972 147.468 204.045 167.389 212.881C187.31 221.717 221.194 188.971 243.072 139.74Z" fill="#AC73FD"/>
</g>
<g opacity="0.7">
<path d="M249.834 178.248C282.401 146.05 298.241 109.286 285.212 96.1325C272.183 82.9791 235.221 98.4177 202.654 130.615C170.086 162.813 154.247 199.578 167.276 212.731C180.304 225.884 217.267 210.446 249.834 178.248Z" fill="#AC73FD"/>
</g>
<g opacity="0.6">
<path d="M256.491 208.936C298.276 190.157 325.989 161.253 318.391 144.377C310.792 127.501 270.759 129.043 228.974 147.822C187.19 166.601 159.476 195.505 167.075 212.381C174.674 229.257 214.707 227.715 256.491 208.936Z" fill="#AC73FD"/>
</g>
<path d="M61.817 173.3C63.8686 172.12 66.3572 171.823 68.6869 172.106C71.0166 172.39 73.2923 173.24 75.4659 174.161C77.5402 175.043 79.6315 175.794 81.6065 176.92C81.6193 176.927 81.6293 176.938 81.6349 176.951C81.644 176.969 81.6459 176.989 81.64 177.008C81.6342 177.027 81.6211 177.043 81.6037 177.053C77.8438 179.021 73.1732 180.858 68.9338 181.283C66.1813 181.566 62.8982 181.101 60.7274 179.239C58.5566 177.376 59.6009 174.578 61.817 173.3Z" fill="#DCC3FB"/>
<path d="M51.7423 130.503C51.7399 130.517 51.734 130.529 51.7252 130.54C51.7164 130.551 51.705 130.559 51.6921 130.563C51.6793 130.568 51.6653 130.57 51.6518 130.568C51.6382 130.566 51.6254 130.56 51.6146 130.551C48.3712 127.816 44.9065 124.19 42.9116 120.428C41.6177 117.987 40.8005 114.778 41.7057 112.065C42.6109 109.352 45.6017 109.261 47.6221 110.831C49.4921 112.283 50.7094 114.477 51.311 116.737C51.9125 118.996 52.0062 121.42 51.9664 123.781C51.9381 126.032 52.026 128.252 51.7423 130.503Z" fill="#DCC3FB"/>
<path d="M68.4843 149.197C67.389 151.181 66.427 153.166 65.1047 155.014C65.096 155.026 65.0842 155.035 65.0706 155.04C65.0514 155.047 65.03 155.047 65.0109 155.039C64.9919 155.031 64.9766 155.016 64.9685 154.997C63.3993 151.059 62.0543 146.229 62.0685 141.956C62.0685 139.192 62.8743 135.977 64.9515 134.018C67.0286 132.06 69.7073 133.381 70.7515 135.719C71.7135 137.883 71.7532 140.391 71.2283 142.671C70.7033 144.95 69.6193 147.133 68.4843 149.197Z" fill="#DCC3FB"/>
<path d="M79.4218 164.854C78.3265 166.839 77.3646 168.823 76.0394 170.672C76.0307 170.683 76.0189 170.692 76.0054 170.697C75.9961 170.701 75.9861 170.703 75.9759 170.703C75.9658 170.703 75.9558 170.701 75.9464 170.697C75.9371 170.693 75.9287 170.688 75.9218 170.68C75.9148 170.673 75.9095 170.664 75.906 170.655C74.3368 166.717 72.989 161.886 73.006 157.614C73.006 154.85 73.8091 151.638 75.889 149.676C77.969 147.714 80.6449 149.038 81.6863 151.377C82.6511 153.54 82.6879 156.049 82.1658 158.328C81.6437 160.608 80.5682 162.79 79.4218 164.854Z" fill="#DCC3FB"/>
<path d="M92.4394 177.779C91.3441 179.746 90.3821 181.748 89.0598 183.593C89.0513 183.606 89.0395 183.616 89.0257 183.622C89.0069 183.628 88.9861 183.628 88.9677 183.62C88.9493 183.612 88.9346 183.597 88.9264 183.579C87.3544 179.639 86.0094 174.808 86.0235 170.538C86.0235 167.777 86.8294 164.562 88.9065 162.6C90.9837 160.639 93.6624 161.963 94.7038 164.301C95.6686 166.462 95.7083 168.971 95.1834 171.25C94.6584 173.529 93.5858 175.712 92.4394 177.779Z" fill="#DCC3FB"/>
<path d="M105.091 188.09C103.998 190.057 103.034 192.059 101.711 193.904C101.703 193.916 101.691 193.926 101.677 193.932C101.658 193.94 101.637 193.94 101.619 193.932C101.6 193.924 101.585 193.909 101.578 193.89C100.006 189.949 98.6609 185.119 98.6779 180.849C98.6779 178.088 99.4809 174.873 101.558 172.911C103.635 170.949 106.317 172.273 107.358 174.612C108.323 176.772 108.36 179.284 107.835 181.563C107.31 183.843 106.243 186.023 105.091 188.09Z" fill="#DCC3FB"/>
<path d="M44.8156 133.488C47.1822 133.61 49.4381 134.713 51.2371 136.21C53.0361 137.707 54.4918 139.652 55.8142 141.596C57.0769 143.462 58.4276 145.228 59.4747 147.241C59.4776 147.255 59.4776 147.269 59.4747 147.283C59.474 147.293 59.4713 147.303 59.4667 147.312C59.4621 147.321 59.4558 147.329 59.4481 147.335C59.4404 147.341 59.4315 147.346 59.4219 147.349C59.4124 147.352 59.4023 147.352 59.3924 147.351C55.1644 146.969 50.2439 145.979 46.4501 144.037C43.9899 142.776 41.4814 140.613 40.667 137.871C39.8526 135.13 42.2618 133.361 44.8156 133.488Z" fill="#DCC3FB"/>
<path d="M51.5019 154.254C53.772 153.594 56.2719 153.9 58.4597 154.731C60.6475 155.561 62.6622 156.919 64.5549 158.34C66.3568 159.689 68.2098 160.917 69.8584 162.479C69.8686 162.489 69.8763 162.502 69.8811 162.515C69.8836 162.525 69.8842 162.536 69.8827 162.546C69.8812 162.556 69.8777 162.565 69.8724 162.574C69.8671 162.583 69.8601 162.59 69.8519 162.596C69.8436 162.602 69.8343 162.607 69.8243 162.609C65.7041 163.627 60.7298 164.296 56.5103 163.698C53.772 163.312 50.6932 162.087 49.0275 159.76C47.3618 157.432 49.0446 154.966 51.5019 154.254Z" fill="#DCC3FB"/>
<path d="M75.6029 189.348C77.4473 187.863 79.8593 187.182 82.206 187.103C84.5527 187.024 86.9278 187.503 89.2206 188.081C91.4055 188.631 93.5905 189.048 95.7158 189.853C95.7289 189.859 95.7406 189.867 95.7499 189.878C95.7559 189.887 95.7603 189.896 95.7627 189.906C95.7651 189.916 95.7655 189.926 95.7639 189.936C95.7624 189.946 95.7588 189.955 95.7535 189.964C95.7481 189.973 95.7411 189.98 95.7329 189.986C92.3277 192.515 87.9975 195.052 83.8745 196.129C81.1986 196.827 77.8843 196.886 75.4496 195.384C73.015 193.881 73.6137 190.953 75.6029 189.348Z" fill="#DCC3FB"/>
<path d="M97.2882 199.412C99.6292 198.998 102.021 199.129 104.382 199.387C106.624 199.622 108.846 199.727 111.062 200.223C111.077 200.226 111.091 200.233 111.102 200.243C111.115 200.258 111.123 200.277 111.123 200.297C111.123 200.317 111.115 200.336 111.102 200.351C108.085 203.336 104.161 206.46 100.231 208.11C97.6769 209.182 94.4108 209.709 91.7861 208.566C89.1613 207.424 89.34 204.442 91.0852 202.57C92.6856 200.838 94.984 199.823 97.2882 199.412Z" fill="#DCC3FB"/>
<path d="M146.77 217.213C103.057 204.708 65.9665 170.521 49.9766 127.991L51.279 127.504C67.1157 169.628 103.854 203.481 147.153 215.878L146.77 217.213Z" fill="#DCC3FB"/>
<path d="M259.26 189.422C252.68 192.438 246.902 187.693 240.478 186.854C238.286 186.551 236.054 186.787 233.974 187.54C236.167 185.612 238.136 183.444 239.842 181.076C239.842 181.076 239.873 181.05 239.888 181.033C244.326 182.78 251.096 182.564 255.662 181.317C260.727 179.939 264.87 176.693 267.892 172.469C267.965 172.375 268.009 172.261 268.019 172.143C268.03 172.024 268.006 171.905 267.951 171.799C267.895 171.694 267.811 171.606 267.708 171.547C267.604 171.488 267.486 171.46 267.367 171.465C258.003 171.312 249.076 171.973 241.982 177.833C243.21 175.908 244.425 174.017 245.77 172.234H245.801C245.83 172.183 245.864 172.129 245.895 172.078L246.281 171.587L246.369 171.627C246.42 171.511 246.468 171.397 246.519 171.284C247.995 169.407 249.713 167.734 251.627 166.306C251.911 166.102 252.194 165.906 252.478 165.713C253.038 165.437 253.637 165.246 254.254 165.146C257.376 164.693 260.557 165.019 263.709 164.826C272.222 164.31 280.417 159.754 285.403 152.831C285.425 152.8 285.435 152.762 285.432 152.724C285.428 152.686 285.411 152.65 285.384 152.623C285.357 152.596 285.321 152.58 285.283 152.577C285.245 152.574 285.207 152.585 285.176 152.607C282.233 154.96 277.968 155.357 274.109 155.054C269.765 154.714 265.352 153.716 261.107 154.699C257.344 155.573 253.678 158.425 250.668 161.951C252.751 157.352 255.076 152.865 257.634 148.511L257.705 148.533C262.273 149.526 269.092 149.273 272.951 148.222C278.014 146.844 282.157 143.598 285.181 139.374C285.254 139.279 285.298 139.166 285.309 139.048C285.319 138.929 285.295 138.81 285.24 138.704C285.185 138.599 285.101 138.511 284.997 138.452C284.894 138.393 284.776 138.364 284.656 138.37C275.956 138.228 267.631 138.801 260.792 143.592C261.428 142.674 262.075 141.764 262.75 140.871C264.961 137.937 267.43 135.206 270.128 132.712C274.126 132.269 279.251 130.543 282.046 128.848C285.982 126.466 288.692 122.73 290.218 118.438C290.257 118.341 290.267 118.235 290.247 118.132C290.227 118.03 290.178 117.935 290.106 117.859C290.034 117.784 289.942 117.73 289.841 117.705C289.74 117.68 289.633 117.684 289.534 117.718C282.023 119.736 275.011 122.285 270.415 128.207C269.438 129.086 268.791 130.344 268.335 131.493C268.314 131.55 268.299 131.609 268.289 131.668C266.054 133.777 263.975 136.045 262.069 138.455C263.221 136.08 264.121 133.687 264.535 131.816C265.67 126.696 264.722 121.522 262.384 116.881C262.334 116.773 262.254 116.681 262.154 116.616C262.053 116.552 261.936 116.517 261.817 116.517C261.697 116.517 261.58 116.552 261.479 116.616C261.379 116.681 261.299 116.773 261.249 116.881C256.993 124.655 253.588 132.437 254.836 140.888C254.793 142.382 255.324 143.907 255.909 145.188C255.998 145.38 256.141 145.541 256.32 145.652C256.5 145.764 256.708 145.82 256.919 145.815C253.488 151.303 250.625 157.123 247.978 162.978C248.908 156.364 247.214 149.611 245.026 142.807C244.988 142.707 244.923 142.618 244.84 142.55C244.757 142.482 244.657 142.437 244.551 142.419C244.445 142.401 244.336 142.411 244.235 142.447C244.133 142.484 244.043 142.546 243.974 142.628C241.02 146.447 239.15 150.923 239.016 155.797C238.883 160.9 240.674 167.942 243.869 171.939C243.846 171.981 243.829 172.027 243.803 172.069C243.794 172.092 243.786 172.116 243.781 172.14C240.767 176.393 238.534 181.212 234.78 184.931C234.107 185.595 233.401 186.227 232.672 186.837C236.531 178.17 234.51 169.206 231.596 160.154C231.558 160.054 231.494 159.965 231.411 159.897C231.328 159.829 231.228 159.783 231.122 159.765C231.016 159.747 230.907 159.757 230.806 159.794C230.705 159.831 230.616 159.893 230.546 159.975C227.589 163.794 225.722 168.27 225.589 173.144C225.458 178.068 227.124 184.767 230.106 188.838C229.017 189.629 225.796 193.589 208.404 206.735L209.199 208.107C224.349 196.24 227.399 194.239 231.826 189.368C234.096 188.518 239.016 193.255 240.949 194.42C242.881 195.585 244.856 196.524 247.152 196.688C252.305 197.031 256.516 193.754 259.677 190.057C259.927 189.751 259.615 189.258 259.26 189.422Z" fill="#DCC3FB"/>
<path d="M214.585 203.251C215.787 202.782 216.858 202.031 217.706 201.059C221.199 192.586 219.221 183.837 216.378 175.003C216.34 174.903 216.276 174.814 216.193 174.746C216.11 174.677 216.011 174.632 215.905 174.613C215.799 174.595 215.69 174.605 215.589 174.641C215.488 174.678 215.398 174.74 215.328 174.822C212.371 178.641 210.504 183.12 210.371 187.99C210.24 192.747 211.784 199.163 214.585 203.251Z" fill="#DCC3FB"/>
<path d="M242.649 201.862C236.066 204.881 230.291 200.132 223.867 199.296C222.323 199.087 220.756 199.141 219.23 199.455C218.219 200.142 217.27 200.915 216.393 201.765C218.884 202.287 222.692 205.851 224.338 206.843C226.284 208.016 228.248 208.949 230.541 209.111C235.694 209.454 239.905 206.174 243.069 202.477C243.316 202.191 242.998 201.7 242.649 201.862Z" fill="#DCC3FB"/>
<path d="M98.4047 131.073C97.3794 130.927 96.4291 130.453 95.6969 129.721C94.9646 128.99 94.4898 128.04 94.344 127.016L94.0943 125.267L93.8446 127.016C93.6993 128.041 93.2247 128.99 92.4923 129.722C91.7599 130.454 90.8095 130.928 89.784 131.073L88.0332 131.322L89.784 131.572C90.8093 131.718 91.7595 132.192 92.4918 132.923C93.2241 133.655 93.6988 134.604 93.8446 135.629L94.0943 137.378L94.344 135.629C94.4903 134.605 94.9652 133.655 95.6974 132.924C96.4296 132.192 97.3795 131.718 98.4047 131.572L100.155 131.322L98.4047 131.073Z" fill="white"/>
<path d="M65.5218 80.3585C64.4962 80.2137 63.5455 79.7397 62.813 79.008C62.0806 78.2762 61.6061 77.3264 61.4612 76.3017L61.2115 74.5525L60.9618 76.3017C60.8169 77.3264 60.3425 78.2762 59.61 79.008C58.8776 79.7397 57.9268 80.2137 56.9012 80.3585L55.1504 80.608L56.9012 80.8574C57.9265 81.0031 58.8767 81.4774 59.609 82.209C60.3413 82.9406 60.816 83.8899 60.9618 84.9143L61.2115 86.6663L61.4612 84.9143C61.607 83.8899 62.0818 82.9406 62.814 82.209C63.5463 81.4774 64.4966 81.0031 65.5218 80.8574L67.2726 80.608L65.5218 80.3585Z" fill="#A163F7"/>
<path d="M36.2669 197.402C35.2414 197.257 34.2909 196.783 33.5586 196.051C32.8262 195.32 32.3516 194.37 32.2063 193.346L31.9565 191.594L31.7068 193.346C31.5606 194.37 31.0857 195.319 30.3535 196.05C29.6213 196.782 28.6713 197.256 27.6462 197.402L25.8926 197.649L27.6462 197.899C28.6713 198.045 29.6213 198.519 30.3535 199.251C31.0857 199.982 31.5606 200.931 31.7068 201.955L31.9565 203.707L32.2063 201.955C32.3516 200.931 32.8262 199.981 33.5586 199.25C34.2909 198.518 35.2414 198.044 36.2669 197.899L38.0177 197.649L36.2669 197.402Z" fill="white"/>
<path d="M225.188 127.076C226.214 126.93 227.164 126.456 227.897 125.725C228.629 124.993 229.104 124.043 229.249 123.019L229.499 121.27L229.748 123.019C229.894 124.043 230.369 124.993 231.101 125.724C231.833 126.456 232.784 126.93 233.809 127.076L235.56 127.325L233.809 127.575C232.784 127.721 231.834 128.195 231.102 128.927C230.369 129.658 229.895 130.607 229.748 131.631L229.499 133.381L229.249 131.631C229.103 130.607 228.628 129.658 227.896 128.926C227.164 128.195 226.214 127.72 225.188 127.575L223.438 127.325L225.188 127.076Z" fill="white"/>
<path d="M264.565 78.8616C265.591 78.7164 266.541 78.2423 267.274 77.5106C268.006 76.7789 268.481 75.8293 268.626 74.8048L268.876 73.0528L269.125 74.8048C269.272 75.829 269.746 76.7781 270.479 77.5096C271.211 78.2411 272.161 78.7155 273.186 78.8616L274.94 79.1111L273.186 79.3578C272.161 79.5039 271.211 79.9783 270.479 80.7098C269.746 81.4413 269.272 82.3904 269.125 83.4146L268.876 85.1666L268.626 83.4146C268.481 82.3901 268.006 81.4405 267.274 80.7088C266.541 79.9771 265.591 79.503 264.565 79.3578L262.814 79.1111L264.565 78.8616Z" fill="white"/>
<path d="M293.83 197.402C294.855 197.256 295.805 196.782 296.537 196.05C297.269 195.319 297.744 194.37 297.89 193.346L298.14 191.594L298.387 193.346C298.533 194.37 299.008 195.319 299.74 196.05C300.473 196.782 301.423 197.256 302.448 197.402L304.201 197.649L302.448 197.899C301.423 198.045 300.473 198.519 299.74 199.251C299.008 199.982 298.533 200.931 298.387 201.955L298.14 203.707L297.89 201.955C297.744 200.931 297.269 199.982 296.537 199.251C295.805 198.519 294.855 198.045 293.83 197.899L292.076 197.649L293.83 197.402Z" fill="#A163F7"/>
<path d="M119.038 18.4034C120.064 18.2586 121.014 17.7846 121.747 17.0529C122.479 16.3211 122.954 15.3713 123.099 14.3466L123.348 12.5974L123.598 14.3466C123.744 15.3709 124.218 16.3203 124.951 17.0519C125.683 17.7834 126.633 18.2577 127.659 18.4034L129.412 18.6529L127.659 18.9023C126.633 19.0484 125.683 19.5229 124.951 20.2544C124.219 20.9859 123.744 21.935 123.598 22.9592L123.348 24.7083L123.099 22.9592C122.95 21.9372 122.475 20.9908 121.742 20.262C121.01 19.5331 120.061 19.061 119.038 18.9165L117.287 18.667L119.038 18.4034Z" fill="white"/>
<path d="M208.062 12.9093C209.087 12.763 210.038 12.2882 210.77 11.5561C211.502 10.824 211.977 9.87426 212.122 8.8496L212.372 7.10043L212.622 8.8496C212.767 9.87462 213.241 10.8249 213.973 11.5571C214.706 12.2893 215.656 12.7639 216.682 12.9093L218.433 13.1559L216.682 13.4054C215.659 13.5534 214.712 14.0288 213.983 14.7603C213.253 15.4917 212.781 16.4397 212.636 17.4622L212.386 19.2142L212.137 17.4622C211.99 16.438 211.515 15.4889 210.783 14.7574C210.051 14.0259 209.101 13.5515 208.076 13.4054L206.322 13.1559L208.062 12.9093Z" fill="#A163F7"/>
<path d="M166.424 261.158C234.232 261.158 289.202 253.588 289.202 244.25C289.202 234.912 234.232 227.342 166.424 227.342C98.6159 227.342 43.6465 234.912 43.6465 244.25C43.6465 253.588 98.6159 261.158 166.424 261.158Z" fill="#653D9E"/>
<g style="mix-blend-mode:multiply" opacity="0.27">
<path d="M166.423 256.437C136.251 256.437 107.359 254.909 85.0664 252.137C70.6627 250.342 62.0052 248.429 56.8436 246.867C53.8073 245.948 53.8073 242.549 56.8436 241.631C62.0052 240.071 70.6627 238.155 85.0664 236.363C107.359 233.588 136.251 232.06 166.423 232.06C196.596 232.06 225.488 233.588 247.78 236.363C262.184 238.155 270.842 240.071 276.003 241.631C279.04 242.549 279.04 245.948 276.003 246.867C270.842 248.429 262.184 250.342 247.78 252.137C225.488 254.909 196.596 256.437 166.423 256.437Z" fill="#58279E"/>
</g>
<g style="mix-blend-mode:multiply" opacity="0.14">
<path d="M172.421 249.923C219.963 249.923 258.503 246.423 258.503 242.107C258.503 237.79 219.963 234.291 172.421 234.291C124.88 234.291 86.3398 237.79 86.3398 242.107C86.3398 246.423 124.88 249.923 172.421 249.923Z" fill="#00283F"/>
</g>
<path d="M166.586 43.643C161.978 45.6842 158.993 50.3845 157.744 55.2663C156.496 60.1481 156.72 65.2624 156.893 70.2916C157.066 75.3208 157.177 80.4662 155.695 85.2828C152.858 94.5191 148.885 101.612 134.178 101.932C138.596 99.1259 140.642 93.6431 140.926 88.4211C141.209 83.1991 140.04 78.0225 139.467 72.8288C138.494 64.0036 140.088 51.0309 143.817 42.9711C148.315 33.2529 161.447 30.2308 167.085 37.5365L166.586 43.643Z" fill="#25133F"/>
<path d="M158.628 38.662C155.654 39.6287 152.939 41.032 150.754 43.3085C146.54 47.7026 144.962 53.9962 144.417 59.8901C144.148 62.7168 144.085 65.5592 144.23 68.395C144.457 72.6474 145.598 76.7893 146.46 80.9482C147.445 85.6769 148.552 90.519 148.662 95.3639C148.679 96.101 148.662 96.8607 148.623 97.6319C152.312 94.624 154.176 90.261 155.7 85.297C157.178 80.4775 157.073 75.3406 156.897 70.3057C156.721 65.2709 156.494 60.1538 157.748 55.2805C159.003 50.4072 161.982 45.6983 166.59 43.6572L167.039 38.0553C164.482 36.9468 161.102 37.8569 158.628 38.662Z" fill="#00172D"/>
<path d="M186.449 166.995C170.204 169.895 153.7 168.696 137.358 167.423C138.944 182.961 132.387 205.108 132.387 205.108C175.396 229.341 195.665 208.354 195.665 208.354C195.665 208.354 194.374 175.375 193.424 165.469C191.108 166.065 188.783 166.573 186.449 166.995Z" fill="#FFA27D"/>
<path d="M161.376 203.568C154.108 203.084 146.816 202.123 139.62 200.986C137.599 200.665 135.567 200.371 133.556 200.002C133.224 199.94 132.875 199.883 132.52 199.821C131.986 202.888 131.629 204.858 131.629 204.858C174.639 229.091 196.769 208.856 196.769 208.856C196.769 208.856 196.499 205.125 196.108 199.784C184.791 202.865 173.166 204.354 161.376 203.568Z" fill="#F3525C"/>
<path d="M159.76 214.976C159.76 214.976 212.148 194.616 246.954 207.821C255.095 210.908 261.36 217.766 261.931 225.429C262.404 231.742 259.224 239.258 243.864 243.065C214.429 250.368 162.282 231.036 162.282 231.036L159.76 214.976Z" fill="#F3525C"/>
<path d="M162.524 214.789C162.524 214.789 112.216 190.743 86.7594 197.272C79.3816 199.166 73.7972 205.391 73.2836 212.98C72.858 219.234 75.7183 227.155 89.5374 232.913C116.015 243.952 162.929 231.246 162.929 231.246L162.524 214.789Z" fill="#F3525C"/>
<path d="M147.086 217.216C141.277 215.45 134.941 213.136 129.135 211.206C125.446 220.184 124.595 228.955 124.51 238.623C126.683 238.263 128.846 237.905 130.988 237.608C151.549 234.773 171.611 231.654 190.947 224.128C176.398 222.101 161.132 221.488 147.086 217.216Z" fill="#FFA27D"/>
<path opacity="0.56" d="M153.483 218.9C151.327 218.407 149.19 217.857 147.082 217.216C141.273 215.45 134.937 213.136 129.131 211.206C125.442 220.184 124.591 228.955 124.506 238.623C126.679 238.263 128.842 237.905 130.984 237.608C142.207 236.057 153.279 234.424 164.167 232.037C158.665 229.863 154.312 224.816 153.483 218.9Z" fill="#FF8851"/>
<path d="M168.181 242.467C167.69 239.289 165.218 234.812 164.906 231.578C158.618 232.978 152.307 234.163 146.393 235.153C141.975 235.89 135.931 228.746 130.687 232.238C118.871 240.108 115.08 239.266 115.08 239.266C110.387 239.266 100.067 237.389 96.0003 245.826C96.0003 245.826 95.0639 249.889 98.8152 249.889C102.567 249.889 112.89 247.7 118.207 248.327C122.084 248.783 149.421 246.688 168.785 246.246C168.578 244.99 168.368 243.728 168.181 242.467Z" fill="#FF8851"/>
<path d="M189.835 224.578C180.755 228.595 169.535 230.413 158.582 232.581C158.982 237.256 159.828 243.161 162.226 246.966C172.035 246.728 180.8 246.736 185.145 247.388C197.656 249.265 256.766 254.263 258.017 233.015C259.269 211.767 217.176 212.47 189.835 224.578Z" fill="#FF717B"/>
<path d="M150.551 227.147C150.589 223.757 150.195 220.376 149.379 217.085C148.896 216.947 148.411 216.802 147.926 216.663C140.622 214.443 132.713 211.172 125.409 208.958C112.439 205.023 92.1584 203.12 84.8715 205.397C78.1974 207.481 72.63 213.769 74.9398 220.436C78.3989 230.492 88.8299 236.596 99.1219 239.309C109.414 242.022 120.29 241.217 130.835 239.762C137.023 238.906 143.171 237.832 149.279 236.539C150.273 233.523 150.542 230.194 150.551 227.147Z" fill="#FF717B"/>
<path d="M133.014 100.784C133.014 100.784 120.145 99.3952 118.409 118.851L103.801 175.488C103.801 175.488 111.105 181.048 120.826 174.794L145.868 100.09L133.014 100.784Z" fill="#FFA27D"/>
<path d="M68.0654 211.104C88.1499 194.426 106.225 167.324 106.225 167.324L121.265 173.317C117.86 193.555 70.9228 219.702 70.9228 219.702L67.0098 211.365L68.0654 211.104Z" fill="#FFA27D"/>
<path d="M73.9932 217.08C71.9218 220.051 68.2584 221.429 65.5429 223.827C64.002 225.191 62.7762 226.872 61.3177 228.32C59.3496 230.251 56.9948 231.743 54.4081 232.699C51.8214 233.656 49.0614 234.054 46.3096 233.868C45.4583 233.806 44.4112 233.494 44.309 232.652C44.2409 232.085 44.6864 231.569 45.2086 231.345C45.7463 231.162 46.312 231.075 46.8799 231.087C50.0973 230.895 53.1626 229.653 55.6056 227.552C53.0461 228.8 50.26 229.516 47.4157 229.658C44.5713 229.8 41.7277 229.364 39.0566 228.377C38.177 228.045 37.1583 227.371 37.3541 226.449C37.4591 225.902 37.9954 225.519 38.543 225.409C39.0973 225.336 39.6602 225.361 40.2059 225.483C43.858 226.032 47.5829 225.852 51.1647 224.952C47.9894 224.921 44.7716 224.621 41.7325 223.654C40.3392 223.212 34.5675 221.267 35.4387 219.118C36.0488 217.601 38.5799 218.367 39.6951 218.687C41.7126 219.274 43.5599 220.246 45.6342 220.672C46.322 220.841 47.026 220.936 47.734 220.955C48.137 220.955 48.7584 220.615 49.1528 220.825C47.1921 219.75 45.9634 217.644 45.4412 215.472C44.9191 213.301 45.0156 211.03 45.1121 208.796C45.1518 207.861 45.3476 206.707 46.2471 206.423C46.9764 206.191 47.7596 206.752 48.0717 207.449C48.3839 208.147 48.3555 208.938 48.3725 209.7C48.4215 211.907 48.8884 214.085 49.7487 216.119C50.2936 217.411 51.3123 218.818 52.7112 218.699C53.71 218.616 54.5017 217.695 54.6748 216.714C54.8479 215.733 54.5102 214.713 54.0051 213.848C52.4501 211.194 49.465 209.743 47.3907 207.466C46.7011 206.71 46.0996 205.559 46.6813 204.714C47.07 204.147 47.8589 203.991 48.5257 204.147C49.1806 204.346 49.7939 204.662 50.3361 205.079C53.5246 207.198 57.0077 208.836 60.6735 209.941C62.4924 210.489 64.3879 210.905 66.2778 210.738C68.1676 210.571 70.0745 209.754 71.201 208.226L73.9932 217.08Z" fill="#FFA27D"/>
<g opacity="0.5">
<path d="M131.763 136.42C133.599 128.408 134.101 120.391 134.215 112.257C130.541 114.838 127.955 118.687 126.956 123.061L117.124 166.195C115.108 175.059 110.722 183.21 104.434 189.779C96.9512 197.584 86.1797 208.323 75.9473 216.754C88.0355 209.425 117.998 189.822 121.176 173.762L126.738 157.172C128.128 150.192 130.182 143.371 131.763 136.42Z" fill="#FF8851"/>
</g>
<path d="M199.835 100.784C199.835 100.784 212.704 99.3952 214.44 118.851L229.048 175.488C229.048 175.488 221.745 181.048 212.006 174.794L186.967 100.09L199.835 100.784Z" fill="#FFA27D"/>
<path d="M264.786 211.104C244.702 194.426 226.617 167.324 226.617 167.324L211.578 173.317C214.983 193.555 261.92 219.702 261.92 219.702L265.833 211.365L264.786 211.104Z" fill="#FFA27D"/>
<path d="M258.855 217.08C260.927 220.051 264.59 221.429 267.306 223.827C268.847 225.191 270.073 226.872 271.531 228.32C273.499 230.251 275.854 231.743 278.441 232.699C281.027 233.656 283.787 234.054 286.539 233.868C287.39 233.806 288.438 233.494 288.525 232.652C288.594 232.085 288.148 231.569 287.626 231.345C287.088 231.162 286.523 231.075 285.955 231.087C282.737 230.895 279.672 229.653 277.229 227.552C279.788 228.8 282.574 229.516 285.419 229.658C288.263 229.8 291.107 229.364 293.778 228.377C294.658 228.045 295.676 227.371 295.48 226.449C295.375 225.902 294.839 225.519 294.292 225.409C293.737 225.336 293.174 225.361 292.629 225.483C288.977 226.032 285.252 225.852 281.67 224.952C284.845 224.921 288.063 224.621 291.102 223.654C292.495 223.212 298.264 221.267 297.396 219.118C296.786 217.601 294.255 218.367 293.139 218.687C291.122 219.274 289.275 220.246 287.2 220.672C286.513 220.841 285.809 220.936 285.1 220.955C284.698 220.955 284.076 220.615 283.682 220.825C285.642 219.75 286.871 217.644 287.39 215.472C287.91 213.301 287.819 211.03 287.722 208.796C287.683 207.861 287.487 206.707 286.587 206.423C285.858 206.191 285.075 206.752 284.763 207.449C284.451 208.147 284.479 208.938 284.462 209.7C284.413 211.907 283.946 214.085 283.086 216.119C282.541 217.411 281.522 218.818 280.123 218.699C279.124 218.616 278.333 217.695 278.16 216.714C277.987 215.733 278.324 214.713 278.829 213.848C280.384 211.194 283.37 209.743 285.444 207.466C286.133 206.71 286.735 205.559 286.153 204.714C285.764 204.147 284.976 203.991 284.309 204.147C283.654 204.346 283.041 204.662 282.498 205.079C279.329 207.188 275.867 208.823 272.223 209.93C270.405 210.477 268.509 210.894 266.619 210.727C264.729 210.559 262.822 209.743 261.696 208.215L258.855 217.08Z" fill="#FFA27D"/>
<g opacity="0.5">
<path d="M225.55 185.98C220.541 180.445 216.925 173.797 215 166.586C210.65 150.311 203.426 125.168 202.708 119.793C201.709 112.3 195.205 108.736 195.205 108.736L198.769 134.968L211.663 173.759C214.756 189.385 243.2 208.362 255.87 216.127C247.318 209.527 233.933 195.251 225.55 185.98Z" fill="#FF8851"/>
</g>
<path d="M132.381 186.871C146.634 191.616 180.904 196.864 196.644 185.371C195.864 178.68 194.942 163.542 194.831 161.588C194.57 156.639 198.483 151.686 199.524 144.652C200.566 137.619 190.657 100.872 190.657 100.872C165.096 89.6656 141.62 100.351 141.62 100.351C141.62 100.351 139.793 119.628 132.75 132.142C125.707 144.655 133.272 154.033 135.361 161.588C136.178 164.551 133.638 180.86 132.381 186.871Z" fill="#FF717B"/>
<path d="M139.745 130.421C142.015 133.891 146.104 135.892 149.875 137.33C158.898 140.766 169.383 141.248 178.728 138.878C182.984 137.797 187.184 136.116 190.254 132.873C193.032 129.939 194.638 126.146 195.546 122.253C195.62 121.93 195.685 121.607 195.75 121.284C193.327 110.775 190.643 100.872 190.643 100.872C165.082 89.6656 141.606 100.351 141.606 100.351C141.606 100.351 140.559 111.62 136.898 122.52C137.355 125.31 138.198 128.062 139.745 130.421Z" fill="#FF8C95"/>
<path d="M150.632 97.4703C151.979 97.2039 153.178 96.4409 153.988 95.3327C155.6 93.0392 155.739 90.1759 155.691 86.9753L155.617 82.1955H177.875L177.592 87.1142C177.467 89.1468 177.821 91.1802 178.626 93.0512C179.431 94.9221 180.664 96.5784 182.225 97.887C182.664 98.2538 183.017 98.7121 183.259 99.2299C183.501 99.7476 183.627 100.312 183.627 100.884V105.788C183.627 108.121 183.167 110.431 182.274 112.587C181.38 114.743 180.07 116.701 178.419 118.351C176.767 120.001 174.807 121.309 172.649 122.202C170.492 123.095 168.179 123.555 165.844 123.555C163.487 123.555 161.154 123.086 158.98 122.177C156.806 121.268 154.835 119.937 153.181 118.26C151.527 116.583 150.223 114.594 149.345 112.409C148.467 110.225 148.032 107.887 148.066 105.533L148.109 102.551C148.119 101.569 148.352 100.602 148.788 99.722C149.225 98.8424 149.855 98.0726 150.632 97.4703Z" fill="#FFA27D"/>
<path d="M148.649 66.7025C148.294 66.4007 147.838 66.2429 147.372 66.2603C145.735 66.3737 144.589 69.047 144.818 72.2307C145.048 75.4143 146.546 77.9006 148.184 77.7929C148.688 77.7354 149.149 77.4817 149.466 77.087C149.143 73.6311 148.748 70.1753 148.649 66.7025Z" fill="#FF8E5E"/>
<path d="M148.722 68.5424C148.564 68.4858 148.396 68.4607 148.229 68.4687C147.094 68.5452 146.302 70.0903 146.43 71.9188C146.557 73.7474 147.565 75.1705 148.7 75.0912C148.901 75.0725 149.095 75.0085 149.267 74.904C149.043 72.7807 148.842 70.6658 148.722 68.5424Z" fill="#E76937"/>
<path d="M183.994 66.7025C184.349 66.3997 184.805 66.2409 185.271 66.2574C186.908 66.3708 188.055 69.0442 187.825 72.2278C187.595 75.4115 186.1 77.8977 184.462 77.79C183.958 77.7334 183.497 77.4796 183.18 77.0841C183.5 73.6311 183.895 70.1753 183.994 66.7025Z" fill="#FF8E5E"/>
<path d="M183.918 68.5424C184.076 68.4858 184.244 68.4607 184.412 68.4687C185.547 68.5452 186.338 70.0903 186.211 71.9188C186.083 73.7474 185.076 75.1705 183.941 75.0912C183.74 75.0725 183.546 75.0085 183.373 74.904C183.597 72.7807 183.799 70.6658 183.918 68.5424Z" fill="#E76937"/>
<path opacity="0.45" d="M182.213 97.8757C180.391 96.3487 179.023 94.3525 178.257 92.1037C178.257 91.9875 176.946 89.1525 177.993 83.219H177.815L177.877 82.1899L172.151 82.8022C172.196 83.0177 172.259 83.2275 172.31 83.4401C166.447 83.6811 160.585 83.9532 154.736 84.472C156.067 87.5252 155.693 90.0228 155.193 93.0194C154.909 94.7204 157.807 96.4554 159.092 97.2945C161.239 98.7137 163.752 99.4811 166.326 99.5037C168.9 99.5263 171.426 98.8033 173.598 97.4221C174.788 96.6897 175.917 95.863 176.975 94.95C179.73 99.8601 180.769 103.344 180.096 110.633C179.202 120.45 169.129 122.795 168.422 123.348C172.642 122.724 176.497 120.606 179.285 117.38C182.072 114.153 183.606 110.033 183.606 105.771V100.867C183.606 100.297 183.481 99.7337 183.241 99.2171C183 98.7004 182.649 98.2426 182.213 97.8757Z" fill="#FF7C49"/>
<path opacity="0.56" d="M155.193 86.5925C156.411 90.536 160.19 96.2938 167.259 95.7126C172.803 95.2562 176.166 90.088 178.081 86.0964C178.056 85.1184 178.03 84.1517 177.993 83.219H177.815L177.877 82.1899L172.151 82.8022C172.196 83.0177 172.259 83.2275 172.31 83.4401C166.447 83.6811 160.585 83.9532 154.736 84.472C155.048 85.1892 155.083 85.9093 155.193 86.5925Z" fill="#FF7C49"/>
<path d="M173.084 90.3971L170.003 92.4439C168.782 93.2419 167.35 93.6558 165.892 93.632C164.433 93.6083 163.016 93.148 161.822 92.3107L159.189 90.4254C152.285 85.4926 148.238 77.8609 148.238 69.7699V57.0807C148.238 49.0833 155.216 42.5997 163.825 42.5997H169.245C177.854 42.5997 184.832 49.0833 184.832 57.0807V69.1916C184.826 77.6001 180.456 85.5068 173.084 90.3971Z" fill="#FF8E5E"/>
<path d="M175.664 64.8768C166.816 65.7613 157.219 66.9208 149.158 62.3423C148.796 63.4089 148.489 64.4933 148.238 65.5912V69.7699C148.238 77.8609 152.285 85.4926 159.189 90.4254L161.822 92.3106C163.016 93.148 164.433 93.6083 165.892 93.632C167.35 93.6558 168.782 93.2419 170.003 92.4439L173.084 90.3971C180.462 85.5068 184.832 77.6086 184.832 69.1916V65.5855C182.04 64.2758 178.635 64.5791 175.664 64.8768Z" fill="#FFA27D"/>
<path d="M161.078 77.3619C161.078 78.4676 159.803 79.3464 158.24 79.3464C156.676 79.3464 155.402 78.4534 155.402 77.3619C155.402 76.2705 156.676 75.3633 158.24 75.3633C159.803 75.3633 161.078 76.2591 161.078 77.3619Z" fill="#FF717B"/>
<path d="M158.367 74.3257C157.773 74.3182 157.197 74.1161 156.728 73.7506C156.259 73.385 155.923 72.8761 155.771 72.3016C155.756 72.1649 155.791 72.0274 155.87 71.9146C155.948 71.8019 156.066 71.7215 156.199 71.6886C156.333 71.6556 156.474 71.6723 156.596 71.7356C156.718 71.7988 156.813 71.9042 156.864 72.0322C156.951 72.3872 157.163 72.6993 157.46 72.9122C157.758 73.1251 158.122 73.2249 158.486 73.1934C158.851 73.1619 159.192 73.0013 159.449 72.7406C159.705 72.4799 159.86 72.1362 159.886 71.7714C159.896 71.6225 159.966 71.4838 160.078 71.3856C160.191 71.2874 160.338 71.2376 160.487 71.2469C160.636 71.2586 160.774 71.3281 160.871 71.4406C160.969 71.553 161.019 71.6994 161.009 71.848C160.956 72.477 160.684 73.0677 160.241 73.518C159.798 73.9683 159.212 74.2499 158.583 74.3144C158.512 74.3225 158.44 74.3263 158.367 74.3257Z" fill="#25133F"/>
<path d="M154.33 69.1774C154.774 68.5716 155.351 68.0754 156.016 67.7269C156.682 67.3784 157.418 67.1868 158.169 67.1668C158.921 67.1468 159.666 67.299 160.35 67.6116C161.033 67.9243 161.635 68.3891 162.111 68.9705C162.168 69.0441 162.195 69.1363 162.189 69.2291C162.182 69.322 162.141 69.409 162.073 69.4734C162.006 69.5379 161.917 69.5751 161.824 69.578C161.731 69.581 161.64 69.5494 161.569 69.4893C160.647 68.6612 159.443 68.2179 158.204 68.2506C156.965 68.2833 155.785 68.7895 154.909 69.665C154.841 69.7262 154.752 69.7605 154.661 69.7615C154.569 69.7624 154.48 69.73 154.411 69.6703C154.341 69.6106 154.296 69.5276 154.283 69.4369C154.27 69.3462 154.291 69.254 154.341 69.1774H154.33Z" fill="#25133F"/>
<path d="M172.672 77.4498C172.672 78.5526 173.946 79.4343 175.509 79.4343C177.073 79.4343 178.347 78.5384 178.347 77.4498C178.347 76.3612 177.073 75.4512 175.509 75.4512C173.946 75.4512 172.672 76.3442 172.672 77.4498Z" fill="#FF717B"/>
<path d="M175.341 74.3257C175.27 74.3299 175.198 74.3299 175.126 74.3257C174.498 74.2607 173.912 73.9787 173.47 73.5285C173.027 73.0782 172.756 72.4879 172.702 71.8593C172.697 71.7848 172.707 71.7101 172.731 71.6394C172.755 71.5687 172.792 71.5034 172.842 71.4472C172.891 71.391 172.95 71.345 173.017 71.3118C173.084 71.2787 173.157 71.2591 173.232 71.254C173.306 71.249 173.381 71.2587 173.452 71.2825C173.523 71.3064 173.588 71.3439 173.644 71.393C173.7 71.4421 173.746 71.5018 173.78 71.5687C173.813 71.6356 173.832 71.7083 173.838 71.7828C173.865 72.1465 174.021 72.4887 174.278 72.7481C174.534 73.0074 174.875 73.1671 175.239 73.1984C175.603 73.2298 175.966 73.1308 176.263 72.9193C176.561 72.7077 176.773 72.3973 176.862 72.0436C176.871 71.9633 176.897 71.8859 176.939 71.8165C176.98 71.7471 177.035 71.6873 177.102 71.6411C177.168 71.5949 177.243 71.5633 177.323 71.5486C177.402 71.5339 177.484 71.5362 177.562 71.5556C177.641 71.5749 177.714 71.6108 177.778 71.6608C177.841 71.7107 177.893 71.7737 177.93 71.8454C177.968 71.9171 177.989 71.9959 177.993 72.0765C177.997 72.1571 177.984 72.2377 177.955 72.3129C177.8 72.8878 177.46 73.3961 176.988 73.7596C176.516 74.1232 175.937 74.3221 175.341 74.3257Z" fill="#25133F"/>
<path d="M178.804 69.6622C177.928 68.7867 176.748 68.2804 175.509 68.2477C174.27 68.215 173.066 68.6584 172.144 69.4864C172.073 69.5465 171.982 69.5781 171.889 69.5752C171.796 69.5723 171.707 69.535 171.64 69.4706C171.572 69.4062 171.531 69.3191 171.524 69.2263C171.518 69.1334 171.545 69.0413 171.602 68.9676C172.078 68.3863 172.68 67.9215 173.363 67.6088C174.047 67.2961 174.792 67.144 175.544 67.1639C176.295 67.1839 177.031 67.3755 177.697 67.7241C178.362 68.0726 178.939 68.5688 179.383 69.1746C179.436 69.251 179.459 69.3443 179.447 69.4365C179.435 69.5287 179.39 69.6133 179.32 69.6741C179.249 69.735 179.159 69.7677 179.066 69.766C178.973 69.7643 178.884 69.7283 178.816 69.665L178.804 69.6622Z" fill="#25133F"/>
<path d="M167.015 72.741C167.078 74.1783 166.953 75.5617 166.961 76.9764C167.31 76.963 167.659 77.0061 167.994 77.104C168.161 77.1532 168.316 77.2373 168.448 77.3507C168.58 77.4641 168.687 77.6042 168.761 77.7617C168.836 77.9843 168.841 78.2246 168.776 78.4505C168.711 78.6763 168.579 78.8771 168.397 79.0261C168.024 79.318 167.556 79.4624 167.083 79.4315C166.556 79.4162 166.042 79.2616 165.594 78.9835" stroke="#E76937" stroke-width="2.62105" stroke-linecap="round" stroke-linejoin="round"/>
<path d="M166.182 84.7697C165.478 84.7684 164.776 84.6788 164.094 84.5032C162.108 83.9986 160.448 82.8391 159.874 81.5492C159.834 81.4167 159.843 81.2739 159.901 81.1478C159.958 81.0218 160.06 80.9211 160.187 80.8649C160.314 80.8087 160.457 80.8009 160.589 80.8429C160.721 80.8849 160.833 80.9737 160.904 81.0927C161.33 82.0481 162.755 83.0035 164.369 83.4146C165.581 83.7236 167.93 83.9957 170.044 82.3741C170.164 82.3054 170.304 82.2824 170.439 82.3094C170.574 82.3364 170.695 82.4115 170.779 82.5208C170.862 82.6301 170.903 82.7661 170.894 82.9035C170.885 83.0408 170.826 83.17 170.728 83.2672C169.42 84.254 167.822 84.7821 166.182 84.7697Z" fill="#FF717B"/>
<path d="M154.381 43.1639C154.81 41.3127 156.022 39.6599 157.599 38.4834C159.208 37.2933 161.12 36.5809 163.116 36.428C165.1 36.2609 167.092 36.6362 168.879 37.5138C170.618 38.3455 172.045 39.7115 172.951 41.4119C172.998 41.5067 173.007 41.6165 172.974 41.7174C172.941 41.8182 172.869 41.902 172.775 41.9505C172.725 41.9749 172.671 41.9889 172.616 41.9918C172.561 41.9948 172.506 41.9865 172.454 41.9675C170.951 41.3663 169.393 40.9088 167.803 40.6011C164.94 40.0686 161.985 40.3284 159.259 41.3524C157.76 41.9341 156.332 42.6845 155.003 43.5891C154.958 43.6198 154.908 43.6411 154.855 43.652C154.802 43.6629 154.748 43.6631 154.695 43.6525C154.642 43.6419 154.592 43.6208 154.547 43.5905C154.503 43.5601 154.465 43.5211 154.435 43.4757C154.406 43.4299 154.386 43.3787 154.377 43.3252C154.368 43.2717 154.369 43.2169 154.381 43.1639Z" fill="#F14753"/>
<path d="M148.756 77.9743C146.79 72.4112 145.694 66.5781 145.507 60.6811C145.397 55.1302 146.983 49.3413 150.899 45.3723C156.378 39.8243 165.232 39.0334 172.816 40.8676C178.693 42.2851 183.577 47.3483 185.285 53.3159C188.035 62.932 184.496 67.0937 184.783 74.9239C184.615 70.3199 184.729 64.0377 180.714 60.8568C178.747 59.3033 175.288 61.3728 173.157 61.8094C169.233 62.6117 163.532 62.4926 159.59 61.7782C157.97 61.4947 156.373 60.8653 154.741 60.6952C153.836 60.5364 152.905 60.7128 152.121 61.1914C151.337 61.6701 150.755 62.418 150.484 63.2949C149.664 65.3956 149.48 67.9102 149.349 70.1413C149.281 71.3717 149.256 72.6049 149.182 73.8268C149.117 74.9182 150.272 79.4967 151.773 82.4365C150.411 81.2231 149.374 79.6893 148.756 77.9743Z" fill="#25133F"/>
<path d="M195.45 205.456C193.296 206.678 191.134 207.798 188.969 208.895L182.516 212.204C180.385 213.338 178.26 214.472 176.228 215.736C174.153 216.985 172.178 218.393 170.32 219.946C171.586 217.808 173.416 216.039 175.343 214.48C177.294 212.94 179.384 211.584 181.586 210.429C183.754 209.251 186.009 208.239 188.331 207.401C190.636 206.527 193.02 205.876 195.45 205.456Z" fill="#D6444F"/>
<path d="M167.518 61.0099C169.346 60.5487 171.236 60.3841 173.116 60.5223C175.061 60.6562 176.956 61.1909 178.684 62.0929C180.447 63.0177 181.954 64.3636 183.071 66.0108C184.204 67.696 184.725 69.7178 184.549 71.7402C184.384 73.7247 183.652 75.5136 182.895 77.189C182.137 78.8645 181.3 80.4605 180.769 82.1445C180.239 83.8285 180.003 85.6117 180.59 87.2814C181.132 88.92 182.401 90.4793 184.237 90.8308C183.303 90.7514 182.42 90.3748 181.717 89.7564C181.009 89.1311 180.449 88.3564 180.077 87.4884C179.692 86.6106 179.486 85.6654 179.47 84.7073C179.457 83.7576 179.569 82.8103 179.802 81.8894C180.236 80.0523 180.993 78.3428 181.655 76.6731C182.316 75.0033 182.861 73.3136 182.934 71.6438C183.153 68.3014 180.755 65.3191 177.781 63.8449C174.742 62.3594 171.198 62.1666 167.566 61.764L167.518 61.0099Z" fill="#25133F"/>
<path d="M168.965 213.253C174.356 211.498 179.966 216.516 185.539 215.521C192.012 214.358 195.167 205.805 201.66 204.779C204.662 204.303 207.67 205.607 210.712 205.567C212.664 205.542 214.605 204.96 216.546 205.187C217.744 205.323 218.852 205.887 219.667 206.775C219.826 206.957 219.932 207.178 219.974 207.416C220.017 207.654 219.994 207.898 219.909 208.124C219.823 208.35 219.678 208.548 219.488 208.698C219.299 208.847 219.073 208.943 218.833 208.975C212.236 209.749 206.064 212.476 200.65 216.385C196.478 219.402 194.648 222.755 188.647 225.1C184.716 226.626 180.621 227.693 176.445 228.281C171.422 228.927 166.037 228.403 164.093 222.894C162.827 219.348 165.424 214.409 168.965 213.253Z" fill="#FFA27D"/>
<path d="M166.226 54.3535C159.83 54.3535 154.496 52.7772 153.27 50.685C153.097 51.0894 153.008 51.5241 153.006 51.9636C153.006 55.4988 158.925 58.3649 166.226 58.3649C173.527 58.3649 179.45 55.4988 179.45 51.9636C179.447 51.5239 179.356 51.0892 179.183 50.685C177.957 52.7744 172.625 54.3535 166.226 54.3535Z" fill="#563388"/>
<path d="M132.064 203.189C134.499 203.607 136.888 204.258 139.198 205.133C141.523 205.974 143.78 206.989 145.952 208.17C148.154 209.324 150.243 210.68 152.194 212.221C154.121 213.78 155.951 215.546 157.217 217.686C155.359 216.133 153.384 214.726 151.309 213.477C149.266 212.215 147.152 211.064 145.021 209.944L138.568 206.636C136.38 205.539 134.218 204.419 132.064 203.189Z" fill="#D6444F"/>
<path d="M224.102 214.812C222.259 214.759 220.415 214.825 218.58 215.01C216.743 215.18 214.916 215.445 213.107 215.804C209.479 216.507 205.921 217.535 202.477 218.874C199.061 220.171 195.768 221.772 192.639 223.657C185.752 225.332 178.874 227.036 172.018 228.825C168.573 229.729 165.131 230.639 161.695 231.586L158.494 232.482C158.494 232.896 194.171 226.067 194.171 226.067C212.837 215.294 236.631 216.088 240.212 216.825C236.699 215.796 227.783 214.874 224.102 214.812Z" fill="#D6444F"/>
<path d="M148.938 216.408C144.398 216.51 139.857 215.665 135.468 214.653C133.268 214.117 131.083 213.536 128.913 212.932L122.446 211.058C118.155 209.781 113.869 208.623 109.586 207.586C105.27 206.503 100.884 205.722 96.459 205.25C100.874 203.928 105.633 204.062 110.145 204.748C114.657 205.434 119.049 206.795 123.34 208.187L129.724 210.389C131.838 211.143 133.941 211.909 136.058 212.632C140.277 214.109 144.511 215.487 148.938 216.408Z" fill="#D6444F"/>
<path d="M187.265 198.871C187.009 199.973 186.684 201.058 186.295 202.12C189.436 201.371 192.435 200.807 195.299 199.914C195.134 196.13 194.927 191.46 194.697 186.72C192.447 187.934 190.082 188.922 187.637 189.669C187.765 193.482 187.68 196.85 187.265 198.871Z" fill="#FF8851"/>
<path d="M199.561 142.197C198.568 144.42 197.362 147.371 196.156 149.398C189.967 159.703 175.527 155.394 165.961 157.455C179.652 160.452 182.839 162.7 184.828 167.23C185.935 169.753 187.351 180.892 187.646 189.669C190.091 188.922 192.456 187.934 194.706 186.72V186.644C195.381 186.241 196.04 185.824 196.658 185.371C195.878 178.68 194.956 163.542 194.845 161.588C194.584 156.639 198.497 151.686 199.538 144.652C199.625 143.837 199.633 143.014 199.561 142.197Z" fill="#FD5F6A"/>
<path d="M183.613 100.872C183.65 102.205 183.684 103.537 183.707 104.87C183.724 105.536 183.735 106.205 183.707 106.877C183.68 107.548 183.614 108.217 183.511 108.881C183.297 110.213 182.934 111.517 182.427 112.768C181.911 114.018 181.258 115.207 180.48 116.314C178.911 118.545 176.851 120.387 174.458 121.699C172.066 123.011 169.404 123.758 166.678 123.884C162.563 124.091 158.504 122.863 155.197 120.408C154.099 119.608 153.101 118.68 152.223 117.644C149.553 114.551 148.048 110.623 147.967 106.539C147.95 105.196 148.044 103.872 148.092 102.536L148.117 104.538V105.536C148.117 105.867 148.134 106.199 148.154 106.531C148.239 107.851 148.471 109.157 148.847 110.426C149.576 112.965 150.873 115.305 152.64 117.27C154.389 119.235 156.557 120.785 158.983 121.804C161.41 122.823 164.034 123.287 166.664 123.161C169.285 123.039 171.846 122.335 174.161 121.1C176.475 119.85 178.486 118.108 180.052 115.997C180.839 114.94 181.505 113.799 182.038 112.595C182.561 111.384 182.949 110.12 183.196 108.824C183.329 108.176 183.423 107.521 183.48 106.862C183.531 106.205 183.545 105.541 183.556 104.878C183.542 103.537 183.576 102.205 183.613 100.872Z" fill="#FD5F6A"/>
<path d="M141.379 102.582C141.211 105.083 140.913 107.573 140.485 110.043C140.065 112.515 139.548 114.973 138.91 117.4C138.277 119.832 137.499 122.224 136.58 124.564C135.666 126.907 134.509 129.147 133.127 131.249C134.233 129.012 135.2 126.71 136.021 124.354C136.214 123.762 136.413 123.175 136.614 122.585C136.816 121.995 136.98 121.394 137.162 120.802L137.446 119.909L137.695 119.01C137.86 118.409 138.033 117.811 138.189 117.21C138.836 114.803 139.387 112.371 139.92 109.933C140.454 107.495 140.925 105.045 141.379 102.582Z" fill="#FD5F6A"/>
<path d="M190.889 102.395C191.436 104.81 191.961 107.214 192.489 109.635C193.017 112.056 193.55 114.454 194.101 116.864C194.385 118.066 194.646 119.271 194.952 120.47C195.259 121.669 195.52 122.866 195.803 124.071C196.399 126.466 197.018 128.853 197.648 131.249C196.723 128.95 195.914 126.606 195.225 124.227C194.881 123.036 194.549 121.842 194.243 120.643C193.936 119.444 193.65 118.239 193.372 117.031C192.835 114.613 192.342 112.187 191.924 109.748C191.507 107.31 191.136 104.858 190.889 102.395Z" fill="#FD5F6A"/>
</svg>
