<svg width="16" height="14" viewBox="0 0 16 14" fill="none" xmlns="http://www.w3.org/2000/svg">
<path d="M13.2691 2.04201C12.5792 1.60991 11.7618 1.42775 10.9536 1.52597C10.1455 1.6242 9.39552 1.99686 8.82914 2.58166L8.00189 3.39599H7.9825L7.16494 2.58166C6.59856 1.99686 5.84862 1.6242 5.04046 1.52597C4.2323 1.42775 3.41491 1.60991 2.72494 2.04201C2.32171 2.30314 1.98179 2.65088 1.72989 3.05993C1.47799 3.46899 1.32045 3.92906 1.26876 4.40667C1.21707 4.88427 1.27252 5.36739 1.43106 5.82087C1.58961 6.27435 1.84728 6.68677 2.1853 7.02812L7.95988 13.1259L8.07621 13.0095L8.11177 13.0451L13.8185 7.02812C14.156 6.68611 14.4131 6.27312 14.5708 5.81922C14.7286 5.36533 14.7832 4.88196 14.7306 4.40431C14.6779 3.92667 14.5194 3.46677 14.2666 3.05812C14.0138 2.64946 13.6731 2.30233 13.2691 2.04201V2.04201Z" stroke="white" stroke-width="1.5" stroke-linecap="round" stroke-linejoin="round"/>
</svg>
