<svg width="37" height="35" viewBox="0 0 37 35" fill="none" xmlns="http://www.w3.org/2000/svg">
<path d="M28.4142 5.47435C28.5122 5.24246 28.8408 5.24246 28.9387 5.47435L30.0203 8.03466C30.0492 8.10294 30.1035 8.15728 30.1718 8.18613L32.7321 9.26772C32.964 9.36568 32.964 9.69429 32.7321 9.79225L30.1718 10.8738C30.1035 10.9027 30.0492 10.957 30.0203 11.0253L28.9387 13.5856C28.8408 13.8175 28.5122 13.8175 28.4142 13.5856L27.3326 11.0253C27.3038 10.957 27.2494 10.9027 27.1811 10.8738L24.6208 9.79225C24.3889 9.69429 24.3889 9.36568 24.6208 9.26772L27.1811 8.18613C27.2494 8.15728 27.3038 8.10294 27.3326 8.03466L28.4142 5.47435Z" fill="#F4D348"/>
<path d="M33.0475 0.620831C33.1454 0.388944 33.474 0.388944 33.572 0.620831L34.1688 2.03357C34.1977 2.10186 34.252 2.1562 34.3203 2.18505L35.733 2.78185C35.9649 2.87981 35.9649 3.20842 35.733 3.30638L34.3203 3.90319C34.252 3.93204 34.1977 3.98638 34.1688 4.05466L33.572 5.4674C33.474 5.69929 33.1454 5.69929 33.0475 5.4674L32.4507 4.05466C32.4218 3.98638 32.3675 3.93204 32.2992 3.90319L30.8865 3.30638C30.6546 3.20842 30.6546 2.87981 30.8865 2.78185L32.2992 2.18505C32.3675 2.1562 32.4218 2.10186 32.4507 2.03357L33.0475 0.620831Z" fill="#F4D348"/>
<path d="M0 20.4711C0 19.5977 0.409156 18.7748 1.10549 18.2476L10.3168 11.2743C11.3124 10.5206 12.6876 10.5206 13.6832 11.2743L22.8945 18.2476C23.5908 18.7748 24 19.5977 24 20.4711V31.4225C24 32.9627 22.7514 34.2113 21.2113 34.2113H2.78873C1.24856 34.2113 0 32.9627 0 31.4225V20.4711Z" fill="url(#paint0_linear_2800_4533)"/>
<defs>
<linearGradient id="paint0_linear_2800_4533" x1="12" y1="10" x2="12" y2="34.2113" gradientUnits="userSpaceOnUse">
<stop stop-color="#F5E14A"/>
<stop offset="1" stop-color="#F0C820"/>
</linearGradient>
</defs>
</svg>
