<svg width="51" height="50" viewBox="0 0 51 50" fill="none" xmlns="http://www.w3.org/2000/svg">
<g filter="url(#filter0_f_2800_4539)">
<path d="M39.4142 9.47435C39.5122 9.24246 39.8408 9.24246 39.9387 9.47435L41.0203 12.0347C41.0492 12.1029 41.1035 12.1573 41.1718 12.1861L43.7321 13.2677C43.964 13.3657 43.964 13.6943 43.7321 13.7923L41.1718 14.8738C41.1035 14.9027 41.0492 14.957 41.0203 15.0253L39.9387 17.5856C39.8408 17.8175 39.5122 17.8175 39.4142 17.5856L38.3326 15.0253C38.3038 14.957 38.2494 14.9027 38.1811 14.8738L35.6208 13.7923C35.3889 13.6943 35.3889 13.3657 35.6208 13.2677L38.1811 12.1861C38.2494 12.1573 38.3038 12.1029 38.3326 12.0347L39.4142 9.47435Z" fill="#F4D348"/>
<path d="M44.0475 4.62083C44.1454 4.38894 44.474 4.38894 44.572 4.62083L45.1688 6.03357C45.1977 6.10186 45.252 6.1562 45.3203 6.18505L46.733 6.78185C46.9649 6.87981 46.9649 7.20842 46.733 7.30638L45.3203 7.90319C45.252 7.93204 45.1977 7.98638 45.1688 8.05466L44.572 9.4674C44.474 9.69929 44.1454 9.69929 44.0475 9.4674L43.4507 8.05466C43.4218 7.98638 43.3675 7.93204 43.2992 7.90319L41.8865 7.30638C41.6546 7.20842 41.6546 6.87981 41.8865 6.78185L43.2992 6.18505C43.3675 6.1562 43.4218 6.10186 43.4507 6.03357L44.0475 4.62083Z" fill="#F4D348"/>
</g>
<g filter="url(#filter1_f_2800_4539)">
<path d="M11 24.4711C11 23.5977 11.4092 22.7748 12.1055 22.2476L21.3168 15.2743C22.3124 14.5206 23.6876 14.5206 24.6832 15.2743L33.8945 22.2476C34.5908 22.7748 35 23.5977 35 24.4711V35.4225C35 36.9627 33.7514 38.2113 32.2113 38.2113H13.7887C12.2486 38.2113 11 36.9627 11 35.4225V24.4711Z" fill="url(#paint0_linear_2800_4539)"/>
</g>
<path d="M39.4142 9.47435C39.5122 9.24246 39.8408 9.24246 39.9387 9.47435L41.0203 12.0347C41.0492 12.1029 41.1035 12.1573 41.1718 12.1861L43.7321 13.2677C43.964 13.3657 43.964 13.6943 43.7321 13.7923L41.1718 14.8738C41.1035 14.9027 41.0492 14.957 41.0203 15.0253L39.9387 17.5856C39.8408 17.8175 39.5122 17.8175 39.4142 17.5856L38.3326 15.0253C38.3038 14.957 38.2494 14.9027 38.1811 14.8738L35.6208 13.7923C35.3889 13.6943 35.3889 13.3657 35.6208 13.2677L38.1811 12.1861C38.2494 12.1573 38.3038 12.1029 38.3326 12.0347L39.4142 9.47435Z" fill="#F4D348"/>
<path d="M44.0475 4.62083C44.1454 4.38894 44.474 4.38894 44.572 4.62083L45.1688 6.03357C45.1977 6.10186 45.252 6.1562 45.3203 6.18505L46.733 6.78185C46.9649 6.87981 46.9649 7.20842 46.733 7.30638L45.3203 7.90319C45.252 7.93204 45.1977 7.98638 45.1688 8.05466L44.572 9.4674C44.474 9.69929 44.1454 9.69929 44.0475 9.4674L43.4507 8.05466C43.4218 7.98638 43.3675 7.93204 43.2992 7.90319L41.8865 7.30638C41.6546 7.20842 41.6546 6.87981 41.8865 6.78185L43.2992 6.18505C43.3675 6.1562 43.4218 6.10186 43.4507 6.03357L44.0475 4.62083Z" fill="#F4D348"/>
<path d="M11 24.4711C11 23.5977 11.4092 22.7748 12.1055 22.2476L21.3168 15.2743C22.3124 14.5206 23.6876 14.5206 24.6832 15.2743L33.8945 22.2476C34.5908 22.7748 35 23.5977 35 24.4711V35.4225C35 36.9627 33.7514 38.2113 32.2113 38.2113H13.7887C12.2486 38.2113 11 36.9627 11 35.4225V24.4711Z" fill="url(#paint1_linear_2800_4539)"/>
<defs>
<filter id="filter0_f_2800_4539" x="31.4453" y="0.447266" width="19.4609" height="21.3125" filterUnits="userSpaceOnUse" color-interpolation-filters="sRGB">
<feFlood flood-opacity="0" result="BackgroundImageFix"/>
<feBlend mode="normal" in="SourceGraphic" in2="BackgroundImageFix" result="shape"/>
<feGaussianBlur stdDeviation="2" result="effect1_foregroundBlur_2800_4539"/>
</filter>
<filter id="filter1_f_2800_4539" x="0" y="3.70898" width="46" height="45.502" filterUnits="userSpaceOnUse" color-interpolation-filters="sRGB">
<feFlood flood-opacity="0" result="BackgroundImageFix"/>
<feBlend mode="normal" in="SourceGraphic" in2="BackgroundImageFix" result="shape"/>
<feGaussianBlur stdDeviation="5.5" result="effect1_foregroundBlur_2800_4539"/>
</filter>
<linearGradient id="paint0_linear_2800_4539" x1="23" y1="14" x2="23" y2="38.2113" gradientUnits="userSpaceOnUse">
<stop stop-color="#F5E14A"/>
<stop offset="1" stop-color="#F0C820"/>
</linearGradient>
<linearGradient id="paint1_linear_2800_4539" x1="23" y1="14" x2="23" y2="38.2113" gradientUnits="userSpaceOnUse">
<stop stop-color="#F5E14A"/>
<stop offset="1" stop-color="#F0C820"/>
</linearGradient>
</defs>
</svg>
