<svg width="168" height="165" viewBox="0 0 168 165" fill="none" xmlns="http://www.w3.org/2000/svg">
<rect y="149" width="38" height="16" rx="3" fill="black" fill-opacity="0.2"/>
<path d="M8.32812 161.109C7.86979 161.109 7.45703 161.018 7.08984 160.836C6.72266 160.654 6.42839 160.404 6.20703 160.086C5.98568 159.768 5.86458 159.406 5.84375 159H6.78125C6.81771 159.362 6.98177 159.661 7.27344 159.898C7.56771 160.133 7.91927 160.25 8.32812 160.25C8.65625 160.25 8.94792 160.173 9.20313 160.02C9.46094 159.866 9.66276 159.655 9.80859 159.387C9.95703 159.116 10.0313 158.81 10.0313 158.469C10.0313 158.12 9.95443 157.809 9.80078 157.535C9.64974 157.259 9.44141 157.042 9.17578 156.883C8.91016 156.724 8.60677 156.643 8.26562 156.641C8.02083 156.638 7.76953 156.676 7.51172 156.754C7.25391 156.829 7.04167 156.927 6.875 157.047L5.96875 156.937L6.45313 153H10.6094V153.859H7.26563L6.98438 156.219H7.03125C7.19531 156.089 7.40104 155.98 7.64844 155.895C7.89583 155.809 8.15365 155.766 8.42188 155.766C8.91146 155.766 9.34766 155.883 9.73047 156.117C10.1159 156.349 10.418 156.667 10.6367 157.07C10.8581 157.474 10.9687 157.935 10.9687 158.453C10.9687 158.964 10.8542 159.419 10.625 159.82C10.3984 160.219 10.0859 160.534 9.6875 160.766C9.28906 160.995 8.83594 161.109 8.32812 161.109ZM15.6299 161V155H16.5205V155.937H16.5986C16.7236 155.617 16.9255 155.368 17.2041 155.191C17.4827 155.012 17.8174 154.922 18.208 154.922C18.6038 154.922 18.9333 155.012 19.1963 155.191C19.4619 155.368 19.6689 155.617 19.8174 155.937H19.8799C20.0335 155.628 20.264 155.382 20.5713 155.199C20.8786 155.014 21.2471 154.922 21.6768 154.922C22.2132 154.922 22.652 155.09 22.9932 155.426C23.3343 155.759 23.5049 156.279 23.5049 156.984V161H22.583V156.984C22.583 156.542 22.4619 156.225 22.2197 156.035C21.9775 155.845 21.6924 155.75 21.3643 155.75C20.9424 155.75 20.6156 155.878 20.3838 156.133C20.152 156.385 20.0361 156.706 20.0361 157.094V161H19.0986V156.891C19.0986 156.549 18.988 156.275 18.7666 156.066C18.5452 155.855 18.2601 155.75 17.9111 155.75C17.6715 155.75 17.4476 155.814 17.2393 155.941C17.0335 156.069 16.8669 156.246 16.7393 156.473C16.6143 156.697 16.5518 156.956 16.5518 157.25V161H15.6299ZM25.1904 161V155H26.1123V161H25.1904ZM25.6592 154C25.4795 154 25.3245 153.939 25.1943 153.816C25.0667 153.694 25.0029 153.547 25.0029 153.375C25.0029 153.203 25.0667 153.056 25.1943 152.934C25.3245 152.811 25.4795 152.75 25.6592 152.75C25.8389 152.75 25.9925 152.811 26.1201 152.934C26.2503 153.056 26.3154 153.203 26.3154 153.375C26.3154 153.547 26.2503 153.694 26.1201 153.816C25.9925 153.939 25.8389 154 25.6592 154ZM28.7227 157.391V161H27.8008V155H28.6914V155.937H28.7695C28.9102 155.633 29.1237 155.388 29.4102 155.203C29.6966 155.016 30.0664 154.922 30.5195 154.922C30.9258 154.922 31.2813 155.005 31.5859 155.172C31.8906 155.336 32.1276 155.586 32.2969 155.922C32.4661 156.255 32.5508 156.677 32.5508 157.188V161H31.6289V157.25C31.6289 156.779 31.5065 156.411 31.2617 156.148C31.0169 155.883 30.681 155.75 30.2539 155.75C29.9596 155.75 29.6966 155.814 29.4648 155.941C29.2357 156.069 29.0547 156.255 28.9219 156.5C28.7891 156.745 28.7227 157.042 28.7227 157.391Z" fill="white"/>
<circle cx="156" cy="12" r="12" fill="black" fill-opacity="0.2"/>
<path d="M161.269 8.04201C160.579 7.60991 159.762 7.42775 158.954 7.52597C158.145 7.6242 157.396 7.99686 156.829 8.58166L156.002 9.39599H155.983L155.165 8.58166C154.599 7.99686 153.849 7.6242 153.04 7.52597C152.232 7.42775 151.415 7.60991 150.725 8.04201C150.322 8.30314 149.982 8.65088 149.73 9.05993C149.478 9.46899 149.32 9.92906 149.269 10.4067C149.217 10.8843 149.273 11.3674 149.431 11.8209C149.59 12.2743 149.847 12.6868 150.185 13.0281L155.96 19.1259L156.076 19.0095L156.112 19.0451L161.818 13.0281C162.156 12.6861 162.413 12.2731 162.571 11.8192C162.729 11.3653 162.783 10.882 162.731 10.4043C162.678 9.92667 162.519 9.46677 162.267 9.05812C162.014 8.64946 161.673 8.30233 161.269 8.04201V8.04201Z" stroke="white" stroke-width="1.5" stroke-linecap="round" stroke-linejoin="round"/>
</svg>
