<svg width="32" height="32" viewBox="0 0 32 32" fill="none" xmlns="http://www.w3.org/2000/svg">
<path d="M26.6666 14.6667H9.10657L12.9466 10.8267C13.1959 10.5774 13.3359 10.2393 13.3359 9.88673C13.3359 9.53417 13.1959 9.19604 12.9466 8.94673C12.6973 8.69743 12.3591 8.55737 12.0066 8.55737C11.654 8.55737 11.3159 8.69743 11.0666 8.94673L4.94657 15.0667C4.82296 15.1901 4.7249 15.3366 4.65799 15.4979C4.59108 15.6592 4.55664 15.8321 4.55664 16.0067C4.55664 16.1814 4.59108 16.3543 4.65799 16.5156C4.7249 16.6769 4.82296 16.8234 4.94657 16.9467L11.0666 23.0667C11.19 23.1902 11.3366 23.2881 11.4978 23.3549C11.6591 23.4217 11.832 23.4561 12.0066 23.4561C12.1811 23.4561 12.354 23.4217 12.5153 23.3549C12.6766 23.2881 12.8231 23.1902 12.9466 23.0667C13.07 22.9433 13.1679 22.7967 13.2347 22.6355C13.3015 22.4742 13.3359 22.3013 13.3359 22.1267C13.3359 21.9522 13.3015 21.7793 13.2347 21.618C13.1679 21.4567 13.07 21.3102 12.9466 21.1867L9.10657 17.3334H26.6666C27.3999 17.3334 27.9999 16.7334 27.9999 16.0001C27.9999 15.2667 27.3999 14.6667 26.6666 14.6667Z" fill="#020825"/>
</svg>
