<svg width="23" height="24" viewBox="0 0 23 24" fill="none" xmlns="http://www.w3.org/2000/svg">
<path d="M14.2081 5.47383C14.3061 5.24194 14.6347 5.24194 14.7327 5.47383L15.8143 8.03414C15.8431 8.10242 15.8975 8.15677 15.9657 8.18561L18.5261 9.2672C18.7579 9.36516 18.7579 9.69377 18.5261 9.79173L15.9657 10.8733C15.8975 10.9022 15.8431 10.9565 15.8143 11.0248L14.7327 13.5851C14.6347 13.817 14.3061 13.817 14.2081 13.5851L13.1266 11.0248C13.0977 10.9565 13.0434 10.9022 12.9751 10.8733L10.4148 9.79173C10.1829 9.69377 10.1829 9.36516 10.4148 9.2672L12.9751 8.18561C13.0434 8.15676 13.0977 8.10242 13.1266 8.03414L14.2081 5.47383Z" fill="white"/>
<path d="M18.8404 0.620892C18.9384 0.389005 19.267 0.389005 19.365 0.620892L19.9618 2.03363C19.9906 2.10192 20.045 2.15626 20.1133 2.18511L21.526 2.78191C21.7579 2.87987 21.7579 3.20849 21.526 3.30645L20.1133 3.90325C20.045 3.9321 19.9906 3.98644 19.9618 4.05472L19.365 5.46747C19.267 5.69935 18.9384 5.69935 18.8404 5.46747L18.2436 4.05472C18.2148 3.98644 18.1605 3.9321 18.0922 3.90325L16.6794 3.30645C16.4475 3.20849 16.4475 2.87987 16.6794 2.78191L18.0922 2.18511C18.1605 2.15626 18.2148 2.10192 18.2436 2.03363L18.8404 0.620892Z" fill="white"/>
<path d="M22.2401 19.3888C22.6198 18.9238 22.107 18.2975 21.5273 18.4534C20.487 18.7332 19.3933 18.8824 18.2647 18.8824C11.3449 18.8824 5.73529 13.2728 5.73529 6.35299C5.73529 4.72226 6.04683 3.1643 6.61363 1.73537C6.83498 1.17732 6.27161 0.596853 5.7665 0.921333C2.29791 3.14958 0 7.04175 0 11.4706C0 18.3904 5.60961 24 12.5294 24C16.4458 24 19.9426 22.2032 22.2401 19.3888Z" fill="white"/>
</svg>
