<svg width="19" height="19" viewBox="0 0 19 19" fill="none" xmlns="http://www.w3.org/2000/svg">
<g clip-path="url(#clip0_38_7596)">
<path d="M9.30407 14.2095C11.4081 14.2095 13.1199 12.4977 13.1199 10.3937V6.57791H12.0296V4.90623C12.0296 3.40335 10.8069 2.18066 9.30407 2.18066C7.8012 2.18066 6.57851 3.40335 6.57851 4.90623V6.57791H5.48828V10.3937C5.48828 12.4977 7.20005 14.2095 9.30407 14.2095ZM7.66873 4.90623C7.66873 4.0045 8.40235 3.27089 9.30407 3.27089C10.2058 3.27089 10.9394 4.0045 10.9394 4.90623V6.57791H7.66873V4.90623ZM6.57851 7.66814H12.0296V10.3937C12.0296 11.8966 10.8069 13.1193 9.30407 13.1193C7.8012 13.1193 6.57851 11.8966 6.57851 10.3937V7.66814Z" fill="white" fill-opacity="0.8"/>
<path d="M9.15389 18.5638L9.30365 18.6065L9.45341 18.5638C14.189 17.2107 17.4803 12.8649 17.4803 7.90766V1.09023H14.9806L13.8903 0H4.71696L3.62673 1.09023H1.12695V7.90766C1.12695 12.833 4.38724 17.2018 9.15389 18.5638ZM2.21718 2.18045H4.0783L5.16853 1.09023H13.4388L14.529 2.18045H16.3901V7.90766C16.3901 12.295 13.4839 16.2051 9.30365 17.4714C5.12343 16.2051 2.21718 12.295 2.21718 7.90766V2.18045Z" fill="white" fill-opacity="0.8"/>
<path d="M8.75879 8.75879H9.84902V12.0295H8.75879V8.75879Z" fill="white" fill-opacity="0.8"/>
</g>
<defs>
<clipPath id="clip0_38_7596">
<rect width="18.6065" height="18.6065" fill="white"/>
</clipPath>
</defs>
</svg>
