<svg width="24" height="24" viewBox="0 0 24 24" fill="none" xmlns="http://www.w3.org/2000/svg">
<path fill-rule="evenodd" clip-rule="evenodd" d="M4.61538 0C2.06638 0 0 2.06638 0 4.61539V19.3846C0 21.9336 2.06638 24 4.61539 24H19.3846C21.9336 24 24 21.9336 24 19.3846V4.61538C24 2.06638 21.9336 0 19.3846 0H4.61538ZM20.045 8.45346C20.2954 7.96122 20.0994 7.35916 19.6072 7.10872C19.1149 6.85828 18.5129 7.0543 18.2624 7.54654L15.3684 13.2348L13.5825 9.30581C13.4188 8.94568 13.0582 8.7159 12.6626 8.71965C12.267 8.72341 11.9109 8.96 11.754 9.32317L9.88876 13.6428L8.41651 11.8606C8.22936 11.634 7.95203 11.5012 7.6582 11.4975C7.36436 11.4938 7.08377 11.6195 6.89095 11.8413L4.24539 14.8836C3.883 15.3004 3.92706 15.932 4.34382 16.2944C4.76058 16.6568 5.39221 16.6128 5.75461 16.196L7.62599 14.0439L9.38786 16.1767C9.60962 16.4451 9.95504 16.5789 10.2998 16.5298C10.6445 16.4808 10.9389 16.2559 11.0769 15.9363L12.6955 12.1878L14.4073 15.9536C14.5663 16.3034 14.9115 16.5311 15.2956 16.5396C15.6797 16.548 16.0347 16.3357 16.2089 15.9933L20.045 8.45346Z" fill="white"/>
</svg>
