<svg width="13" height="15" viewBox="0 0 13 15" fill="none" xmlns="http://www.w3.org/2000/svg">
<path d="M4.4142 5.47337C4.51216 5.24148 4.84078 5.24148 4.93874 5.47337L6.02033 8.03368C6.04917 8.10197 6.10351 8.15631 6.1718 8.18515L8.73211 9.26674C8.964 9.3647 8.964 9.69332 8.73211 9.79128L6.1718 10.8729C6.10351 10.9017 6.04917 10.9561 6.02033 11.0243L4.93874 13.5846C4.84078 13.8165 4.51216 13.8165 4.4142 13.5846L3.33261 11.0243C3.30377 10.9561 3.24943 10.9017 3.18114 10.8729L0.620831 9.79128C0.388944 9.69332 0.388944 9.3647 0.620831 9.26674L3.18114 8.18515C3.24943 8.15631 3.30377 8.10197 3.33261 8.03368L4.4142 5.47337Z" fill="#FF4766"/>
<path d="M9.0465 0.620831C9.14446 0.388944 9.47307 0.388944 9.57103 0.620831L10.1678 2.03357C10.1967 2.10186 10.251 2.1562 10.3193 2.18505L11.7321 2.78185C11.9639 2.87981 11.9639 3.20842 11.7321 3.30638L10.3193 3.90319C10.251 3.93204 10.1967 3.98638 10.1678 4.05466L9.57103 5.4674C9.47307 5.69929 9.14446 5.69929 9.0465 5.4674L8.44969 4.05466C8.42085 3.98638 8.36651 3.93204 8.29822 3.90319L6.88548 3.30638C6.65359 3.20843 6.65359 2.87981 6.88548 2.78185L8.29822 2.18505C8.36651 2.1562 8.42085 2.10186 8.44969 2.03357L9.0465 0.620831Z" fill="#FF4766"/>
</svg>
