<svg width="16" height="16" viewBox="0 0 16 16" fill="none" xmlns="http://www.w3.org/2000/svg">
<path d="M7.99967 1.3335C4.31767 1.3335 1.33301 4.31816 1.33301 8.00016C1.33301 11.6822 4.31767 14.6668 7.99967 14.6668C11.6817 14.6668 14.6663 11.6822 14.6663 8.00016C14.6663 4.31816 11.6817 1.3335 7.99967 1.3335ZM7.33301 5.8335V10.1668C7.33301 10.2994 7.28033 10.4266 7.18656 10.5204C7.09279 10.6142 6.96562 10.6668 6.83301 10.6668C6.7004 10.6668 6.57322 10.6142 6.47945 10.5204C6.38569 10.4266 6.33301 10.2994 6.33301 10.1668V5.8335C6.33301 5.70089 6.38569 5.57371 6.47945 5.47994C6.57322 5.38617 6.7004 5.3335 6.83301 5.3335C6.96562 5.3335 7.09279 5.38617 7.18656 5.47994C7.28033 5.57371 7.33301 5.70089 7.33301 5.8335ZM11.333 5.8335V10.1668C11.333 10.2994 11.2803 10.4266 11.1866 10.5204C11.0928 10.6142 10.9656 10.6668 10.833 10.6668C10.7004 10.6668 10.5732 10.6142 10.4795 10.5204C10.3857 10.4266 10.333 10.2994 10.333 10.1668V5.8335C10.333 5.70089 10.3857 5.57371 10.4795 5.47994C10.5732 5.38617 10.7004 5.3335 10.833 5.3335C10.9656 5.3335 11.0928 5.38617 11.1866 5.47994C11.2803 5.57371 11.333 5.70089 11.333 5.8335ZM9.33301 6.8335V9.16683C9.33301 9.29944 9.28033 9.42661 9.18656 9.52038C9.09279 9.61415 8.96562 9.66683 8.83301 9.66683C8.7004 9.66683 8.57322 9.61415 8.47945 9.52038C8.38569 9.42661 8.33301 9.29944 8.33301 9.16683V6.8335C8.33301 6.70089 8.38569 6.57371 8.47945 6.47994C8.57322 6.38617 8.7004 6.3335 8.83301 6.3335C8.96562 6.3335 9.09279 6.38617 9.18656 6.47994C9.28033 6.57371 9.33301 6.70089 9.33301 6.8335ZM5.33301 7.16683V8.8335C5.33301 8.9661 5.28033 9.09328 5.18656 9.18705C5.09279 9.28082 4.96562 9.3335 4.83301 9.3335C4.7004 9.3335 4.57322 9.28082 4.47945 9.18705C4.38569 9.09328 4.33301 8.9661 4.33301 8.8335V7.16683C4.33301 7.03422 4.38569 6.90704 4.47945 6.81328C4.57322 6.71951 4.7004 6.66683 4.83301 6.66683C4.96562 6.66683 5.09279 6.71951 5.18656 6.81328C5.28033 6.90704 5.33301 7.03422 5.33301 7.16683Z" fill="#848BBD"/>
</svg>
