<svg width="20" height="22" viewBox="0 0 20 22" fill="none" xmlns="http://www.w3.org/2000/svg">
<path d="M8.4142 9.4738C8.51216 9.24191 8.84078 9.24191 8.93874 9.4738L10.0203 12.0341C10.0492 12.1024 10.1035 12.1567 10.1718 12.1856L12.7321 13.2672C12.964 13.3651 12.964 13.6937 12.7321 13.7917L10.1718 14.8733C10.1035 14.9021 10.0492 14.9565 10.0203 15.0248L8.93874 17.5851C8.84078 17.817 8.51216 17.817 8.4142 17.5851L7.33261 15.0248C7.30377 14.9565 7.24943 14.9021 7.18114 14.8733L4.62083 13.7917C4.38894 13.6937 4.38894 13.3651 4.62083 13.2672L7.18114 12.1856C7.24943 12.1567 7.30377 12.1024 7.33261 12.0341L8.4142 9.4738Z" fill="#F4D348"/>
<path d="M13.0465 4.62083C13.1445 4.38894 13.4731 4.38894 13.571 4.62083L14.1678 6.03357C14.1967 6.10186 14.251 6.1562 14.3193 6.18505L15.7321 6.78185C15.9639 6.87981 15.9639 7.20842 15.7321 7.30638L14.3193 7.90319C14.251 7.93204 14.1967 7.98638 14.1678 8.05466L13.571 9.4674C13.4731 9.69929 13.1445 9.69929 13.0465 9.4674L12.4497 8.05466C12.4208 7.98638 12.3665 7.93204 12.2982 7.90319L10.8855 7.30638C10.6536 7.20843 10.6536 6.87981 10.8855 6.78185L12.2982 6.18505C12.3665 6.1562 12.4208 6.10186 12.4497 6.03357L13.0465 4.62083Z" fill="#F4D348"/>
<g filter="url(#filter0_f_10_2776)">
<path d="M8.4142 9.4738C8.51216 9.24191 8.84078 9.24191 8.93874 9.4738L10.0203 12.0341C10.0492 12.1024 10.1035 12.1567 10.1718 12.1856L12.7321 13.2672C12.964 13.3651 12.964 13.6937 12.7321 13.7917L10.1718 14.8733C10.1035 14.9021 10.0492 14.9565 10.0203 15.0248L8.93874 17.5851C8.84078 17.817 8.51216 17.817 8.4142 17.5851L7.33261 15.0248C7.30377 14.9565 7.24943 14.9021 7.18114 14.8733L4.62083 13.7917C4.38894 13.6937 4.38894 13.3651 4.62083 13.2672L7.18114 12.1856C7.24943 12.1567 7.30377 12.1024 7.33261 12.0341L8.4142 9.4738Z" fill="#F4D348"/>
<path d="M13.0465 4.62083C13.1445 4.38894 13.4731 4.38894 13.571 4.62083L14.1678 6.03357C14.1967 6.10186 14.251 6.1562 14.3193 6.18505L15.7321 6.78185C15.9639 6.87981 15.9639 7.20842 15.7321 7.30638L14.3193 7.90319C14.251 7.93204 14.1967 7.98638 14.1678 8.05466L13.571 9.4674C13.4731 9.69929 13.1445 9.69929 13.0465 9.4674L12.4497 8.05466C12.4208 7.98638 12.3665 7.93204 12.2982 7.90319L10.8855 7.30638C10.6536 7.20843 10.6536 6.87981 10.8855 6.78185L12.2982 6.18505C12.3665 6.1562 12.4208 6.10186 12.4497 6.03357L13.0465 4.62083Z" fill="#F4D348"/>
</g>
<defs>
<filter id="filter0_f_10_2776" x="0.447266" y="0.446899" width="19.459" height="21.3121" filterUnits="userSpaceOnUse" color-interpolation-filters="sRGB">
<feFlood flood-opacity="0" result="BackgroundImageFix"/>
<feBlend mode="normal" in="SourceGraphic" in2="BackgroundImageFix" result="shape"/>
<feGaussianBlur stdDeviation="2" result="effect1_foregroundBlur_10_2776"/>
</filter>
</defs>
</svg>
