<svg width="260" height="239" viewBox="0 0 260 239" fill="none" xmlns="http://www.w3.org/2000/svg">
<path d="M243.158 84.0879C239.026 71.3251 225.066 55.3388 210.626 56.4571C201.527 57.1545 191.824 61.7202 182.995 57.5953C175.693 54.2006 170.943 47.0101 163.811 43.2733C151.726 36.9446 137.049 37.3919 124.155 40.7208C105.991 45.4049 81.0968 56.7137 72.2879 74.3974C71.7343 75.5139 71.2381 76.6579 70.8011 77.8249C70.4984 78.6473 70.2287 79.4828 69.9985 80.3248C67.1762 90.4035 71.7287 100.193 68.1301 110.271C64.9526 119.146 57.1633 125.475 49.6175 130.619C35.7626 140.08 24.6643 151.487 20.3289 168.118C16.4474 182.888 18.2961 199.867 29.3484 211.235C58.5843 241.313 107.635 219.13 136.97 200.821C151.108 191.986 162.825 179.513 177.758 171.96C192.837 164.355 208.494 158.934 221.547 147.764C230.645 139.981 237.283 129.731 241.52 118.587C245.355 108.521 246.519 94.8573 243.223 84.3774C243.217 84.2721 243.191 84.2063 243.158 84.0879Z" fill="#7091FF"/>
<path d="M49.6569 114.903C49.7008 115.306 49.7666 115.705 49.8543 116.1C50.0844 117.194 50.554 118.223 51.2292 119.113C51.8156 118.199 52.2592 117.201 52.545 116.153C52.6502 115.771 52.7226 115.396 52.795 115.015C53.4157 114.964 54.0316 114.865 54.637 114.719C55.7113 114.474 56.7293 114.028 57.6369 113.403C56.7419 112.76 55.7327 112.294 54.6633 112.028C54.1168 111.886 53.5605 111.785 52.9989 111.726C52.9611 111.213 52.8908 110.703 52.7884 110.199C52.578 109.108 52.1458 108.071 51.5187 107.153C50.8902 108.047 50.4145 109.038 50.1108 110.087C49.9434 110.661 49.8181 111.246 49.7358 111.837C49.3613 111.897 48.9902 111.976 48.624 112.074C47.5517 112.36 46.5488 112.861 45.6768 113.548C46.6078 114.105 47.6232 114.507 48.6832 114.739C49.0188 114.811 49.3411 114.85 49.6569 114.903Z" fill="#7D50FF"/>
<path d="M203.323 23.6822C203.36 24.2777 203.431 24.8706 203.533 25.4584C203.753 26.7659 204.222 28.0189 204.915 29.1491C205.507 27.9974 205.949 26.7749 206.23 25.5111C206.362 24.9321 206.467 24.3532 206.546 23.7677C207.401 23.7231 208.252 23.6198 209.092 23.4585C210.383 23.221 211.627 22.7767 212.776 22.1428C211.641 21.4855 210.405 21.0188 209.119 20.7612C208.33 20.5906 207.529 20.4784 206.724 20.4257C206.708 19.6785 206.639 18.9333 206.52 18.1955C206.334 16.8906 205.91 15.6309 205.27 14.4785C204.627 15.6088 204.149 16.8249 203.849 18.0902C203.657 18.8851 203.516 19.6916 203.428 20.5046C202.862 20.5691 202.299 20.6658 201.744 20.7941C200.453 21.0727 199.223 21.5807 198.112 22.2941C199.286 22.8526 200.529 23.2488 201.81 23.4717C202.31 23.5835 202.816 23.6427 203.323 23.6822Z" fill="#7D50FF"/>
<path d="M35.0919 94.147C35.1286 94.7429 35.2011 95.3361 35.309 95.9233C35.5232 97.2312 35.9902 98.4848 36.684 99.614C37.2758 98.4623 37.7179 97.2397 37.9998 95.9759C38.1313 95.397 38.2366 94.8181 38.3155 94.2326C39.1724 94.1876 40.0252 94.0843 40.8681 93.9234C42.1565 93.6847 43.3982 93.2405 44.5456 92.6076C43.4119 91.9514 42.1786 91.4848 40.8944 91.2261C40.1054 91.0563 39.305 90.9442 38.4997 90.8906C38.4779 90.1434 38.4076 89.3984 38.2892 88.6604C38.1028 87.3555 37.6792 86.0957 37.0393 84.9434C36.4002 86.0755 35.9219 87.291 35.6182 88.5551C35.429 89.3506 35.2884 90.1569 35.1972 90.9695C34.6308 91.034 34.0685 91.1306 33.513 91.259C32.2202 91.5368 30.9879 92.0448 29.875 92.7589C31.0412 93.3207 32.2784 93.7213 33.5525 93.9497C34.0788 94.0352 34.5854 94.0747 35.0919 94.147Z" fill="#7D50FF"/>
<path d="M217.579 43.3787C213.204 42.813 208.368 43.3327 203.73 43.8392C193.204 44.9774 183.336 46.0497 177.896 35.6882C177.825 35.5274 177.722 35.3828 177.593 35.2634C177.464 35.144 177.312 35.0524 177.147 34.9942C176.981 34.9359 176.805 34.9124 176.63 34.9249C176.454 34.9375 176.284 34.9859 176.128 35.0671C175.972 35.1484 175.835 35.2608 175.724 35.3973C175.614 35.5338 175.532 35.6916 175.485 35.8609C175.438 36.0301 175.427 36.2072 175.451 36.3812C175.475 36.5552 175.535 36.7224 175.626 36.8723C181.856 48.7799 193.119 47.5628 204.007 46.3852C208.546 45.8984 213.151 45.3918 217.25 45.9181C232.289 47.8917 246.196 58.6217 252.624 73.312C259.623 89.2655 257.281 107.318 254.084 119.646C254.007 119.975 254.06 120.322 254.231 120.613C254.403 120.905 254.68 121.119 255.005 121.212C255.108 121.238 255.215 121.251 255.321 121.251C255.604 121.246 255.878 121.15 256.102 120.977C256.326 120.804 256.488 120.563 256.564 120.291C259.854 107.568 262.262 88.9102 254.966 72.266C248.17 56.7862 233.493 45.4445 217.579 43.3787Z" fill="#7D50FF"/>
<path d="M85.3593 231.919C70.6624 237.485 52.1892 235.774 37.1568 227.452C24.6966 220.551 16.4929 210.045 14.0522 197.848C14.0271 197.675 13.9672 197.51 13.8761 197.362C13.7851 197.214 13.6648 197.085 13.5227 196.985C13.3805 196.885 13.2194 196.814 13.0492 196.778C12.879 196.742 12.7032 196.741 12.5325 196.775C12.3619 196.809 12.1999 196.877 12.0565 196.976C11.9131 197.074 11.7912 197.201 11.6982 197.348C11.6053 197.495 11.5433 197.66 11.5159 197.831C11.4886 198.003 11.4965 198.179 11.5392 198.348C14.1312 211.288 22.7822 222.419 35.9134 229.689C45.4116 234.915 56.0712 237.671 66.9125 237.702C73.5159 237.746 80.073 236.596 86.2672 234.307C86.5651 234.173 86.8006 233.93 86.9257 233.628C87.0507 233.326 87.0558 232.988 86.94 232.683C86.8241 232.377 86.5961 232.127 86.3023 231.984C86.0086 231.841 85.6713 231.815 85.3593 231.912V231.919Z" fill="#7D50FF"/>
<path d="M223.902 40.1288C239.033 41.4446 255.651 55.8323 257.453 69.2003C257.501 69.504 257.653 69.7815 257.884 69.9845C258.114 70.1876 258.409 70.3035 258.716 70.3121H258.894C259.227 70.2585 259.526 70.0791 259.731 69.811C259.935 69.5429 260.029 69.2066 259.993 68.8714C258.019 54.2073 240.552 39.0104 224.099 37.5894C223.771 37.5798 223.452 37.696 223.207 37.9143C222.963 38.1326 222.811 38.4363 222.783 38.763C222.755 39.0898 222.854 39.4147 223.058 39.6712C223.262 39.9277 223.557 40.0961 223.882 40.142L223.902 40.1288Z" fill="#7D50FF"/>
<path style="mix-blend-mode:multiply" d="M34.0637 114.647C33.9058 115.305 33.7545 115.962 33.5966 116.62C31.9848 123.699 31.7349 132.409 27.5245 138.514C25.5427 141.521 22.8252 143.971 19.63 145.633C17.6563 143.238 15.9393 140.166 14.2485 137.021C7.99873 131.758 -1.71808 125.041 0.295013 123.357L14.8143 131.324C9.89341 124.087 2.31469 115.094 4.28831 112.245L17.0971 126.482C13.3538 117.929 7.52506 107.213 9.69604 104.838L19.9457 123.061C19.3734 114.074 17.3537 101.588 20.2352 100.568L28.2021 130.39C30.6625 124.903 32.0769 117.015 34.0637 114.647Z" fill="url(#paint0_linear_21_196)"/>
<path d="M168.284 112.357C173.797 116.962 180.126 120.982 186.145 124.923C187.303 125.679 188.527 126.449 189.797 127.179C192.809 129.02 196.12 130.322 199.579 131.028C191.12 137.969 181.293 143.049 170.738 145.935C160.729 141.366 152.334 133.879 146.653 124.456C148.554 127.673 149.765 131.153 152.265 134.028C155.771 138.054 159.284 141.981 163.488 145.244C164.31 145.902 165.153 146.501 166.034 147.106C148.966 150.718 131.227 149.452 114.845 143.455C46.7087 118.903 126.252 37.3925 138.186 68.7336C174.198 42.0437 204.086 83.2464 223.302 51.0105C229.355 80.0096 223.243 103.502 210.112 120.226C196.408 121.936 179.093 121.39 168.284 112.357Z" fill="#06174F"/>
<path style="mix-blend-mode:multiply" d="M37.7099 168.171C37.7048 164.163 38.0748 160.163 38.8151 156.224C42.5745 138.355 52.5434 122.396 66.9524 111.179C90.1228 93.1468 117.609 81.259 146.2 74.8842C173.995 68.687 221.198 66.7463 237.072 96.8836C259.072 138.626 202.955 165.71 173.87 180.506C156.397 189.394 138.799 197.545 120.668 205.032C106.53 210.874 91.228 216.65 75.8337 217.814C63.6236 218.742 50.795 216.893 42.3216 207.012C35.9994 199.644 35.1244 192.006 36.7494 183.006C37.6375 178.131 37.5981 173.158 37.7099 168.171Z" fill="url(#paint1_linear_21_196)"/>
<path d="M158.684 99.4761C161.131 102.108 160.145 106.857 158.533 109.693C156.092 113.989 150.033 115.272 149.145 109.265C148.356 103.943 154.849 95.6012 158.684 99.4761Z" fill="#9E2323"/>
<path d="M156.903 100.752C155.647 107.844 152.811 113.074 148.732 116.475C147.879 117.208 146.958 117.857 145.982 118.416C142.483 120.429 138.305 121.363 133.614 121.265C133.239 121.1 132.884 120.923 132.529 120.732L132.338 120.633C126.648 117.607 123.47 112.739 122.181 106.193C122.108 105.798 122.029 105.397 121.97 104.996C121.878 104.456 121.806 103.89 121.74 103.331C112.378 102.732 117.043 89.4697 124.444 95.6472C129.503 94.3709 133.489 92.2525 135.917 88.904C136.858 87.5853 137.553 86.1077 137.97 84.5422C139.72 86.2922 141.45 87.9829 143.18 89.6013C147.48 93.6438 152.066 97.3704 156.903 100.752Z" fill="#FDC097"/>
<path d="M111.839 93.4697C113.076 91.2987 115.194 89.0751 117.971 89.2001C119.295 89.3069 120.547 89.8487 121.531 90.7412C122.515 91.6337 123.176 92.8266 123.411 94.1342C124.168 99.009 117.708 109.542 112.227 104.167C109.122 101.127 109.918 96.8841 111.839 93.4697Z" fill="#9E2323"/>
<path d="M116.68 90.5026C112.186 89.8447 109.989 94.5946 110.009 97.8774C110.009 99.5878 110.522 101.877 112.252 102.831C119.193 106.66 124.607 91.7131 116.68 90.5026Z" fill="#FF8F50"/>
<path d="M114.172 93.417C113.147 94.4961 112.506 95.8837 112.35 97.3643C112.291 98.9366 112.837 100.588 114.731 99.8708C116.626 99.1537 118.021 95.8578 116.863 94.0091C115.955 92.6013 114.981 92.6934 114.172 93.417Z" fill="#BDCCD4"/>
<g style="mix-blend-mode:multiply">
<path d="M140.015 110.153C139.226 110.153 138.43 110.074 137.772 110.008L137.364 109.969C137.308 109.964 137.253 109.948 137.204 109.922C137.154 109.895 137.11 109.859 137.074 109.816C137.039 109.772 137.012 109.722 136.997 109.668C136.981 109.614 136.976 109.558 136.982 109.502C136.994 109.391 137.049 109.289 137.135 109.217C137.221 109.146 137.331 109.111 137.443 109.12L137.857 109.16C139.212 109.291 141.489 109.522 142.377 108.765C142.487 108.672 142.576 108.556 142.638 108.425C142.701 108.295 142.735 108.153 142.739 108.009C142.778 107.436 142.278 106.877 141.752 106.278C141.331 105.854 140.98 105.365 140.712 104.831C140.131 103.205 139.951 101.463 140.186 99.7522C140.199 99.6405 140.255 99.5383 140.343 99.4671C140.43 99.3959 140.541 99.3613 140.653 99.3706C140.709 99.3756 140.762 99.3914 140.812 99.4173C140.861 99.4432 140.904 99.4786 140.94 99.5214C140.975 99.5642 141.002 99.6136 141.018 99.6668C141.035 99.7199 141.04 99.7758 141.035 99.8311C140.807 101.403 140.968 103.006 141.502 104.502C141.735 104.948 142.034 105.356 142.39 105.713C143.015 106.41 143.653 107.134 143.594 108.061C143.583 108.32 143.52 108.574 143.406 108.807C143.293 109.041 143.133 109.248 142.936 109.416C142.072 109.983 141.044 110.242 140.015 110.153Z" fill="#FF9C59"/>
</g>
<path d="M134.424 101.647C132.877 101.53 131.439 100.807 130.424 99.634L131.082 99.1077C131.851 100.081 133.792 101.048 134.884 100.733L135.114 101.555C134.89 101.618 134.657 101.649 134.424 101.647Z" fill="#9B5E35"/>
<path d="M147.805 104.318C147.08 104.329 146.358 104.222 145.667 104.002L145.943 103.199C147.328 103.573 148.79 103.545 150.16 103.12L150.41 103.936C149.565 104.19 148.687 104.319 147.805 104.318Z" fill="#9B5E35"/>
<path d="M130.595 103.469C130.59 103.658 130.54 103.843 130.45 104.009C129.996 104.871 128.627 104.989 127.766 104.996C126.325 104.996 123.088 103.996 124.7 102.075C125.818 100.759 128.272 100.759 129.608 101.746C129.892 101.939 130.129 102.195 130.3 102.493C130.471 102.792 130.572 103.126 130.595 103.469Z" fill="#F76666"/>
<path d="M151.482 107.416C150.285 106.226 147.18 105.877 146.384 107.206C144.608 110.179 151.976 110.758 151.963 108.436C151.956 108.242 151.909 108.052 151.827 107.877C151.744 107.702 151.627 107.545 151.482 107.416Z" fill="#F76666"/>
<path d="M144.778 111.009C144.807 110.928 144.807 110.839 144.778 110.759C144.62 110.469 144.363 110.574 144.166 110.713C143.822 111.003 143.441 111.249 143.034 111.443C142.587 111.541 142.128 111.569 141.673 111.528C141.247 111.468 140.825 111.383 140.409 111.272C139.596 110.976 138.704 110.976 137.89 111.272C137.544 111.103 137.21 110.912 136.89 110.699C136.502 110.519 136.102 110.367 135.693 110.245C134.804 109.969 133.798 109.93 133.094 109.272C132.709 108.907 132.395 108.474 132.166 107.996C132.041 107.746 131.916 107.226 131.633 107.101C131.239 106.936 130.93 107.515 131.054 107.838C131.574 109.153 132.133 110.818 133.12 111.903C134.03 112.957 135.236 113.713 136.581 114.074C137.037 114.186 137.505 114.241 137.975 114.239C139.238 114.207 140.48 113.901 141.613 113.344C142.367 112.956 143.087 112.505 143.765 111.995C144.153 111.686 144.64 111.528 144.778 111.009Z" fill="#DD4545"/>
<path d="M140.93 93.6144C140.215 93.605 139.506 93.4806 138.831 93.246C138.188 93.0689 137.525 92.976 136.858 92.9697C136.164 92.9661 135.472 93.0345 134.792 93.1736C134.084 93.3345 133.391 93.5545 132.72 93.8315C132.626 93.8715 132.522 93.8775 132.425 93.8486C132.328 93.8197 132.243 93.7577 132.187 93.6733C132.131 93.5888 132.106 93.4874 132.117 93.3865C132.127 93.2856 132.173 93.1917 132.246 93.121C132.845 92.5354 133.547 92.0669 134.318 91.7394C135.914 91.0424 137.697 90.8989 139.384 91.3315C139.828 91.4192 140.245 91.6086 140.604 91.8848C140.962 92.1611 141.252 92.5166 141.45 92.9236C141.503 93.0449 141.505 93.1822 141.457 93.3056C141.409 93.4289 141.314 93.5281 141.193 93.5815C141.13 93.6072 141.063 93.6206 140.996 93.6209L140.93 93.6144Z" fill="#9B5E35"/>
<path d="M145.167 94.2789C145.514 94.0696 145.901 93.9377 146.303 93.8922C146.705 93.8468 147.112 93.889 147.496 94.0158C148.248 94.2025 148.973 94.4832 149.654 94.8513C150.328 95.2128 150.955 95.6546 151.523 96.167C152.084 96.6599 152.581 97.2213 153.003 97.838C153.056 97.9213 153.079 98.0198 153.069 98.118C153.06 98.2161 153.017 98.3082 152.949 98.3794C152.881 98.4507 152.791 98.497 152.693 98.5109C152.596 98.5249 152.496 98.5057 152.411 98.4565C151.812 98.0946 151.233 97.7394 150.641 97.417C150.063 97.0989 149.468 96.8134 148.858 96.5618C148.264 96.3192 147.653 96.1212 147.029 95.9697C146.35 95.8553 145.709 95.5776 145.161 95.1605C145.054 95.0773 144.984 94.9552 144.967 94.8209C144.95 94.6866 144.986 94.5509 145.069 94.4434C145.091 94.3831 145.125 94.3273 145.167 94.2789Z" fill="#9B5E35"/>
<path d="M126.97 136.764C128.549 137.054 130.081 137.363 131.575 137.711C129.968 139.275 128.062 140.497 125.97 141.303C124.696 141.794 123.372 142.144 122.022 142.349C117.847 142.993 113.574 142.351 109.773 140.507C104.986 138.223 101.298 134.135 99.5166 129.139C100.273 129.337 101.043 129.547 101.839 129.797C109.918 124.679 115.036 119.067 119.174 111.975C119.437 111.515 119.7 111.054 119.957 110.581C120.213 110.107 120.404 109.771 120.615 109.364L120.792 109.028C120.963 108.693 121.134 108.37 121.305 108.022C121.411 107.818 121.509 107.62 121.608 107.403C121.812 107.002 121.996 106.594 122.194 106.186C123.509 112.732 126.661 117.6 132.351 120.626L132.542 120.725L126.97 136.764Z" fill="#FDC097"/>
<path d="M153.943 172.895C151.14 168.02 148.397 162.882 145.706 157.546L151.686 219.88L152.252 231.557L110.977 238.669L108.418 229.275L85.3856 163.809C85.3396 164.757 85.3001 165.697 85.2475 166.638L66.373 159.046C68.5177 139.31 74.9254 125.238 94.7275 128.166C100.517 153.382 113.372 158.974 116.885 142.501L117.766 142.573C118.795 142.631 119.827 142.607 120.852 142.501C121.154 142.501 121.463 142.442 121.766 142.402C123.615 153.125 128.68 162.369 139.016 139.823C152.976 144.494 162.002 152.237 169.738 162.573L153.943 172.895Z" fill="white"/>
<path d="M86.0233 166.935L85.3851 172.487L84.872 172.401L65.6226 169.132L64.0371 168.856L64.2476 158.185L66.3726 159.04L85.247 166.632L86.0233 166.935Z" fill="#BDCCD4"/>
<path d="M84.8657 172.401C83.1947 193.881 78.287 211.367 66.0176 219.768C65.8334 219.906 65.6426 220.025 65.4519 220.15C63.6975 219.088 62.0024 217.961 60.3665 216.768C40.8868 202.42 31.124 178.151 25.3281 149.856C23.1308 149.198 21.2756 147.665 19.6046 145.659C17.6309 143.264 15.9139 140.192 14.2231 137.047C7.97334 131.784 -1.74347 125.067 0.269623 123.383L14.7889 131.35C9.86802 124.113 2.2893 115.12 4.26292 112.272L17.0717 126.508C13.3284 117.956 7.49967 107.239 9.67065 104.864L19.9203 123.087C19.348 114.1 17.3283 101.614 20.2098 100.594L28.1767 130.416C30.67 124.89 32.0844 117.002 34.0975 114.627C34.2301 114.435 34.4019 114.274 34.6015 114.154C34.8011 114.033 35.024 113.957 35.2554 113.929C35.373 113.923 35.4908 113.937 35.6041 113.969C35.2028 125.238 35.1501 137.521 32.4726 142.152L65.2019 198.795C65.3334 188.828 65.2019 178.598 65.6558 169.112L82.1027 171.901L84.8657 172.401Z" fill="#FDC097"/>
<path d="M247.261 121.922C246.748 123.686 246.004 125.725 245.142 127.902C244.05 130.626 242.761 133.547 241.472 136.382L240.379 138.757C237.61 144.751 236.11 148.579 231.511 152.316C220.387 173.598 209.045 195.078 193.828 207.459C191.681 209.213 189.4 210.796 187.006 212.196C176.329 205.295 166.836 193.861 158.06 179.704L173.592 168.007C177.96 174.585 182.098 182.052 186.749 190.276L222.9 147.297C219.216 143.481 218.295 130.744 214.933 118.258L215.11 118.166C218.091 116.85 221.985 127.284 225.459 133.633C225.176 129.883 224.742 125.501 224.334 121.278C224.11 118.89 223.887 116.561 223.709 114.416C223.676 113.923 223.643 113.442 223.604 112.975C223.248 108.245 223.163 104.68 223.755 104.028C225.294 104.028 226.735 107.732 227.946 112.317C228.327 113.784 228.696 115.35 229.038 116.923C229.643 119.705 230.163 122.495 230.584 124.784C231.137 122.645 231.576 120.477 231.899 118.291C232.169 116.627 232.426 114.89 232.682 113.212C233.518 107.6 234.34 102.568 235.709 102.37C237.097 102.502 237.195 108.462 236.662 114.87C236.511 116.719 236.307 118.607 236.057 120.403C235.886 121.646 235.702 122.85 235.491 123.955C236.064 123.004 236.585 122.022 237.051 121.015C237.801 119.416 238.445 117.765 239.024 116.159C240.656 111.62 241.754 107.515 243.103 106.344C244.333 107.285 243.833 112.581 242.445 118.337C242.004 120.172 241.472 122.047 240.886 123.843C240.399 125.31 239.879 126.725 239.327 128.014C240.36 127.081 241.282 126.032 242.077 124.889C243.143 123.368 244.114 121.781 244.985 120.14C246.162 117.995 246.958 116.337 247.445 116.258C248.3 116.896 248.096 119.021 247.261 121.922Z" fill="#FDC097"/>
<path d="M130.331 97.8313C131.328 98.408 132.371 98.9009 133.45 99.3049C133.933 99.4757 134.434 99.5927 134.943 99.6536C135.431 99.7161 135.927 99.662 136.39 99.4957H136.43C136.543 99.458 136.667 99.4666 136.774 99.5195C136.881 99.5725 136.963 99.6656 137.002 99.7786C137.021 99.8395 137.027 99.9035 137.02 99.9668C137.013 100.03 136.994 100.091 136.963 100.147C136.74 100.472 136.447 100.744 136.105 100.941C135.764 101.138 135.382 101.255 134.989 101.285C134.256 101.351 133.519 101.24 132.838 100.963C132.199 100.716 131.602 100.372 131.068 99.943C130.547 99.5246 130.102 99.0194 129.752 98.4497C129.691 98.3502 129.672 98.2306 129.7 98.1171C129.727 98.0037 129.798 97.9056 129.897 97.8444C129.965 97.8087 130.041 97.79 130.117 97.79C130.194 97.79 130.27 97.8087 130.338 97.8444L130.331 97.8313Z" fill="#9B5E35"/>
<path d="M145.113 101.765C145.932 102.398 146.934 102.749 147.969 102.765C149.074 102.804 150.181 102.696 151.258 102.443C151.37 102.42 151.488 102.442 151.584 102.505C151.68 102.568 151.747 102.666 151.771 102.779C151.788 102.864 151.779 102.952 151.747 103.033C151.714 103.114 151.658 103.183 151.587 103.232C150.482 103.929 149.188 104.267 147.883 104.2C147.198 104.177 146.525 104.009 145.909 103.706C145.282 103.4 144.763 102.908 144.423 102.298C144.369 102.197 144.357 102.079 144.391 101.969C144.424 101.859 144.499 101.767 144.6 101.713C144.674 101.672 144.759 101.654 144.843 101.661C144.927 101.668 145.008 101.7 145.074 101.752L145.113 101.765Z" fill="#9B5E35"/>
<path d="M174.408 167.362L173.566 168.007L158.034 179.704L157.12 180.388L152.633 173.77L153.968 172.895L169.738 162.566L170.566 162.027L174.408 167.362Z" fill="#BDCCD4"/>
<path d="M139.397 138.968C139.272 139.258 139.14 139.534 139.015 139.817C128.68 162.362 123.614 153.119 121.766 142.396C125.451 141.921 128.888 140.28 131.575 137.712L133.028 135.554L139.397 138.968Z" fill="#BDCCD4"/>
<path d="M116.885 142.494C113.372 158.941 100.517 153.375 94.7279 128.159C94.6753 127.922 94.6161 127.679 94.5635 127.442L99.2607 126.376L99.5041 129.139C100.825 132.791 103.164 135.989 106.243 138.356C109.323 140.722 113.016 142.158 116.885 142.494Z" fill="#BDCCD4"/>
<path d="M108.443 229.275L151.712 219.88L152.278 231.558L111.002 238.669L108.443 229.275Z" fill="#BDCCD4"/>
<path d="M124.646 171.559L121.265 172L117.423 142.606L117.765 142.567C118.794 142.625 119.825 142.601 120.85 142.494L124.646 171.559Z" fill="#BDCCD4"/>
<path style="mix-blend-mode:multiply" d="M241.474 136.382L240.382 138.757C237.613 144.751 236.113 148.579 231.514 152.316C220.389 173.598 209.048 195.078 193.831 207.459C199.837 197.808 206.331 188.526 212.587 179.019C219.12 169.151 222.929 158.309 223.192 147.303C223.366 140.009 221.98 132.762 219.126 126.047C218.041 123.416 216.495 120.843 215.087 118.153C218.067 116.837 221.962 127.271 225.435 133.619C225.152 129.87 224.718 125.488 224.31 121.265C227.488 124.001 230.54 126.712 233.521 129.58C236.1 132.04 238.902 134.073 241.474 136.382Z" fill="url(#paint2_linear_21_196)"/>
<path style="mix-blend-mode:multiply" d="M227.92 112.318C228.302 113.785 228.67 115.351 229.012 116.923L223.683 114.43C223.65 113.936 223.618 113.456 223.578 112.989C224.968 112.484 226.443 112.256 227.92 112.318Z" fill="url(#paint3_linear_21_196)"/>
<path style="mix-blend-mode:multiply" d="M232.658 113.199C234.024 113.643 235.354 114.188 236.638 114.831C236.487 116.68 236.283 118.568 236.033 120.364C235.684 120.16 235.322 119.962 234.967 119.765C234.612 119.568 233.474 119.028 231.875 118.278C232.145 116.614 232.401 114.877 232.658 113.199Z" fill="url(#paint4_linear_21_196)"/>
<path style="mix-blend-mode:multiply" d="M242.428 118.298C241.988 120.133 241.455 122.008 240.869 123.804C239.652 122.778 238.369 121.833 237.027 120.975C237.777 119.377 238.422 117.725 239.001 116.12C240.192 116.798 241.343 117.541 242.428 118.298Z" fill="url(#paint5_linear_21_196)"/>
<path style="mix-blend-mode:multiply" d="M247.262 121.922C246.749 123.686 246.006 125.725 245.144 127.902C244.144 126.837 243.118 125.81 242.059 124.857C243.125 123.335 244.096 121.749 244.966 120.107L246.045 120.916C246.453 121.238 246.861 121.574 247.262 121.922Z" fill="url(#paint6_linear_21_196)"/>
<path style="mix-blend-mode:multiply" d="M84.8645 172.402C83.1935 193.881 78.2857 211.368 66.0164 219.769C65.8322 219.907 65.6414 220.025 65.4506 220.15C63.6963 219.089 62.0011 217.962 60.3652 216.769C62.5099 213.48 64.5822 210.19 66.49 206.815C73.0293 195.283 77.7792 183.967 82.0619 171.908L84.8645 172.402Z" fill="url(#paint7_linear_21_196)"/>
<g style="mix-blend-mode:multiply">
<path d="M168.766 151.711C164.259 149.152 160.358 145.659 156.266 142.554C151.773 139.272 147.038 136.333 142.102 133.764C133.188 128.975 123.833 124.469 113.813 122.64C105.238 121.108 96.4714 120.974 87.8536 122.245C83.1697 122.872 78.5696 124.015 74.1369 125.653C68.4463 131.909 64.7556 139.771 61.1438 147.363C60.8856 147.9 60.5558 148.4 60.1636 148.85C59.8412 153.172 59.7426 157.514 59.5584 161.678C59.4215 165.275 59.472 168.876 59.7097 172.467C62.5907 173.22 65.5179 173.782 68.4726 174.151C73.4395 174.599 78.0775 173.994 82.9984 175.362C85.8602 176.151 88.0707 178.704 88.9193 181.572C98.6756 178.217 107.129 174.691 116.682 170.533C116.568 169.862 116.398 169.202 116.175 168.559L116.346 169.053C116.368 169.167 116.429 169.27 116.517 169.345C116.606 169.42 116.717 169.464 116.833 169.467C118.53 169.592 124.82 166.796 126.964 166.099C131.076 164.783 135.03 164.04 139.155 162.757C143.898 161.264 148.207 158.448 152.97 157.237C156.516 156.33 159.983 156.415 163.437 154.968C165.476 154.113 167.154 152.876 168.983 151.79L168.766 151.711Z" fill="#D9E2E8"/>
</g>
<g style="mix-blend-mode:multiply">
<path d="M163.285 148.02L140.838 149.704L130.404 150.494C108.208 152.152 85.4912 153.869 62.9064 156.987C62.9064 157.566 62.8537 158.145 62.834 158.724C85.478 155.586 108.267 153.856 130.529 152.198C134.009 151.935 137.49 151.678 140.97 151.408L165.423 149.573C164.699 149.086 163.989 148.566 163.285 148.02Z" fill="#90A5B6"/>
<path d="M168.916 152.987C151.338 154.599 134.628 156.625 118.562 159.092C101.49 161.724 84.1949 164.697 67.4717 167.586L62.6758 168.414C62.6758 168.993 62.6758 169.572 62.6758 170.151L67.7612 169.27C84.4778 166.382 101.767 163.401 118.819 160.783C135.233 158.263 152.318 156.178 170.317 154.573C169.863 154.033 169.396 153.507 168.916 152.987Z" fill="#90A5B6"/>
<path d="M103.714 229.952C104.951 229.544 106.181 229.136 107.418 228.748C123.861 223.537 140.576 219.228 157.489 215.84C157.193 215.334 156.917 214.808 156.66 214.268C139.857 217.651 123.25 221.942 106.911 227.123C105.688 227.504 104.464 227.906 103.247 228.307C103.405 228.86 103.563 229.406 103.714 229.952Z" fill="#90A5B6"/>
<path d="M130.258 202.933C119.66 205.209 108.838 207.92 97.7002 211.077L98.2726 212.689C109.345 209.551 120.094 206.867 130.62 204.604C138.206 202.979 145.87 201.315 153.58 199.782C153.547 199.203 153.527 198.624 153.527 198.052C145.699 199.624 137.936 201.308 130.258 202.933Z" fill="#90A5B6"/>
<path d="M96.5703 208.005L97.1558 209.617C116.372 204.11 135.089 199.545 153.628 195.801C153.687 195.203 153.766 194.604 153.878 194.012C135.063 197.788 116.076 202.413 96.5703 208.005Z" fill="#90A5B6"/>
<path d="M111.95 176.368C103.799 177.618 95.9634 178.861 88.3584 180.118C88.6631 180.627 88.9228 181.162 89.1347 181.717C96.5753 180.493 104.266 179.276 112.213 178.052C132.443 174.94 153.462 172.256 176.52 169.849C176.593 169.704 176.685 169.566 176.744 169.421C176.93 168.985 177.069 168.531 177.158 168.066C153.758 170.5 132.449 173.217 111.95 176.368Z" fill="#90A5B6"/>
<path d="M176.211 163.151C168.455 163.954 160.685 164.789 152.982 165.684C131.93 168.131 108.338 171.158 83.5693 175.552C84.395 175.863 85.164 176.308 85.8456 176.868C109.851 172.677 132.706 169.756 153.179 167.381C161.074 166.467 168.968 165.612 176.902 164.796C176.718 164.23 176.487 163.68 176.211 163.151Z" fill="#90A5B6"/>
<path d="M137.727 135.876C136.707 135.656 135.75 135.206 134.931 134.56C133.707 134.613 132.464 134.659 131.246 134.725C115.076 135.56 98.5106 136.928 82.0111 138.79C78.8862 139.145 75.6955 139.448 72.3206 139.718C70.347 139.889 68.3339 140.06 66.334 140.251C65.9984 140.863 65.6761 141.468 65.334 142.066C67.7155 141.83 70.097 141.626 72.4654 141.409C75.86 141.119 79.0441 140.836 82.2019 140.481C98.6488 138.619 115.194 137.257 131.339 136.422C133.812 136.297 136.312 136.192 138.812 136.086C138.45 136.04 138.095 135.948 137.727 135.876Z" fill="#90A5B6"/>
<path d="M145.588 180.118C127.997 183.111 109.852 187.032 91.3135 191.822C91.4451 192.368 91.5898 192.92 91.7411 193.473C110.234 188.697 128.332 184.789 145.878 181.796C152.706 180.638 159.594 179.572 166.489 178.565C167.574 177.829 168.666 177.098 169.745 176.362C161.667 177.513 153.594 178.75 145.588 180.118Z" fill="#90A5B6"/>
<path d="M92.0508 194.617C92.2087 195.17 92.3666 195.716 92.531 196.262C107.175 192.69 122.57 189.315 138.891 186.105C146.339 184.631 154.128 183.131 162.167 181.684C163.174 180.881 164.226 180.125 165.285 179.388C156.016 181.026 147.069 182.749 138.556 184.427C122.188 187.651 106.741 191.039 92.0508 194.617Z" fill="#90A5B6"/>
</g>
<g style="mix-blend-mode:screen">
<path d="M95.9397 121.442C91.124 117.64 92.6503 107.37 93.5187 103.134C95.8889 91.9666 102.193 82.0229 111.281 75.1149C121.182 67.5033 129.629 65.3652 135.715 68.9309L135.281 69.6677C128.011 65.3981 118.498 70.6413 111.801 75.7925C102.88 82.5714 96.6894 92.3271 94.3542 103.285C93.6963 106.469 91.9003 117.14 96.466 120.745L95.9397 121.442Z" fill="#06174F"/>
</g>
<path style="mix-blend-mode:multiply" d="M126.97 136.764C128.549 137.054 130.082 137.363 131.576 137.711C129.969 139.275 128.062 140.497 125.97 141.303C123.943 136.269 122.375 131.062 121.286 125.745C120.35 121.192 119.652 116.594 119.194 111.969C119.457 111.508 119.721 111.048 119.977 110.574C120.234 110.1 120.425 109.765 120.635 109.357L120.813 109.021C120.984 108.686 121.155 108.364 121.326 108.015C121.431 107.811 121.53 107.614 121.628 107.397C121.832 106.995 122.03 106.587 122.214 106.179C123.53 112.725 126.681 117.594 132.372 120.62L132.562 120.718L126.97 136.764Z" fill="url(#paint8_linear_21_196)"/>
<path style="mix-blend-mode:multiply" d="M156.903 100.752C155.653 107.844 152.811 113.074 148.732 116.476C144.397 111.996 141.259 106.239 139.108 100.647C137.653 96.8452 136.584 92.9067 135.917 88.891C136.858 87.5723 137.553 86.0948 137.97 84.5293C139.72 86.2792 141.45 87.97 143.18 89.5883C147.48 93.6353 152.066 97.3664 156.903 100.752Z" fill="url(#paint9_linear_21_196)"/>
<g style="mix-blend-mode:screen">
<path d="M199.499 74.1014C195.941 74.0983 192.4 73.6091 188.973 72.6475C185.81 71.6922 182.698 70.5722 179.651 69.2924C176.292 67.8663 172.844 66.6577 169.329 65.674C163.585 64.3139 157.62 64.1704 151.817 65.253C149.013 65.8723 146.299 66.8426 143.738 68.1411C142.876 68.5358 141.995 68.9437 141.067 69.3384L140.731 68.549C141.652 68.1608 142.527 67.7595 143.363 67.3648C145.983 66.0355 148.762 65.0451 151.632 64.4175C157.562 63.3095 163.658 63.4574 169.527 64.8517C173.075 65.8399 176.556 67.0574 179.947 68.4963C182.956 69.7682 186.031 70.8793 189.158 71.8252C195.836 73.7435 202.919 73.7435 209.598 71.8252C215.519 70.0423 219.597 66.0885 223.591 61.8452L224.209 62.4307C220.137 66.7595 215.973 70.7989 209.841 72.6409C206.483 73.6269 202.999 74.1189 199.499 74.1014Z" fill="#06174F"/>
</g>
<g style="mix-blend-mode:screen">
<path d="M203.283 84.9633C195.967 84.9633 189.79 81.3515 183.81 77.8451C182.231 76.9175 180.593 75.9636 178.968 75.0886C174.447 72.565 169.623 70.6262 164.613 69.319C159.613 68.1085 154.784 68.569 149.679 69.0559L148.627 69.1546L148.541 68.3059L149.594 68.2072C154.778 67.7138 159.679 67.2467 164.817 68.4901C169.895 69.8115 174.783 71.7769 179.362 74.3386C181.007 75.2136 182.652 76.1807 184.237 77.1083C190.428 80.7331 196.829 84.483 204.408 84.0817C208.947 83.8383 213.467 82.2002 218.223 79.0556L218.69 79.7661C213.809 82.9962 209.158 84.687 204.46 84.937C204.059 84.9567 203.664 84.9633 203.283 84.9633Z" fill="#06174F"/>
</g>
<g style="mix-blend-mode:screen">
<path d="M141.076 106.482C140.957 106.485 140.84 106.514 140.733 106.568C140.545 106.656 140.389 106.801 140.288 106.982C140.187 107.164 140.146 107.373 140.171 107.579C140.196 107.786 140.285 107.979 140.426 108.132C140.568 108.284 140.753 108.389 140.957 108.429C142.062 108.581 142.003 106.462 141.076 106.482Z" fill="#FDC097"/>
</g>
<path d="M159.39 98.9431L157.022 97.9628C159.752 91.3841 163.147 83.1409 160.837 75.5951C159.324 70.6413 155.298 66.5559 149.785 64.4112C143.555 61.9574 136.437 62.306 131.207 65.3191C123.253 69.9242 121.411 80.812 119.931 89.5684C119.799 90.3644 119.668 91.1473 119.529 91.9104L117.01 91.4696C117.141 90.7131 117.273 89.9302 117.404 89.1407C118.977 79.8581 120.931 68.3058 129.904 63.1021C135.786 59.7008 143.759 59.293 150.7 62.0297C156.943 64.4836 161.515 69.1677 163.258 74.8714C165.864 83.2725 162.278 91.963 159.39 98.9431Z" fill="#FF8F50"/>
<path d="M137.904 84.5292C144.292 91.108 150.403 96.6736 155.838 100.752C170.633 112.042 190.369 111.581 211.487 110.574C208.52 97.2788 165.37 91.6474 138.187 68.7336C136.884 74.5493 136.582 79.9109 137.904 84.5292Z" fill="#06174F"/>
<g style="mix-blend-mode:screen">
<path d="M208.153 109.528C203.588 106.995 198.239 106.568 193.068 106.147C191.411 106.015 189.687 105.877 188.036 105.673C181.354 104.94 174.749 103.619 168.299 101.726C158.03 98.5484 144.616 91.7657 139.063 77.4569L139.859 77.1477C145.287 91.1341 158.458 97.7918 168.556 100.91C174.952 102.803 181.504 104.124 188.134 104.857C189.772 105.061 191.476 105.199 193.128 105.331C198.391 105.752 203.831 106.193 208.555 108.811L208.153 109.528Z" fill="#06174F"/>
</g>
<g style="mix-blend-mode:screen">
<path d="M206.125 106.943C204.026 105.515 201.408 104.752 198.888 104.022L197.434 103.594C192.776 102.274 188.047 101.218 183.27 100.43C177.001 99.2719 170.514 98.0746 164.383 95.6207C156.574 92.5024 146.048 86.5354 139.949 75.7726L140.693 75.3516C146.673 85.8776 157.041 91.7984 164.679 94.8247C170.731 97.2522 177.178 98.4364 183.402 99.5877C188.211 100.384 192.973 101.447 197.665 102.772L199.105 103.199C201.586 103.916 204.368 104.732 206.605 106.239L206.125 106.943Z" fill="#06174F"/>
</g>
<path d="M86.2415 87.3778C86.1978 87.3842 86.1535 87.3842 86.1099 87.3778C77.0115 84.5423 70.2749 75.865 69.3472 65.7732C67.5052 45.7409 89.3269 34.1952 96.0635 31.1032C103.175 27.8598 110.932 25.8994 118.431 24.0047C128.609 21.439 139.128 18.7812 148.036 12.8866C148.082 12.8549 148.133 12.8327 148.188 12.8215C148.243 12.8102 148.299 12.8102 148.354 12.8212C148.408 12.8323 148.46 12.8542 148.506 12.8858C148.552 12.9174 148.591 12.958 148.621 13.005C148.653 13.0514 148.675 13.1037 148.687 13.1589C148.698 13.214 148.698 13.2709 148.687 13.3261C148.676 13.3813 148.654 13.4337 148.622 13.4803C148.591 13.5268 148.55 13.5665 148.503 13.5971C139.47 19.5574 128.891 22.2284 118.648 24.8139C111.182 26.6954 103.458 28.6493 96.4122 31.8597C89.8335 34.8728 68.4065 46.2014 70.1959 65.6745C71.0906 75.4242 77.5904 83.8121 86.3665 86.5423C86.4745 86.5757 86.5649 86.6505 86.6179 86.7503C86.6709 86.8502 86.6822 86.967 86.6494 87.0751C86.6217 87.162 86.5675 87.238 86.4943 87.2923C86.4211 87.3466 86.3326 87.3765 86.2415 87.3778Z" fill="white"/>
<path d="M75.2805 67.799C75.1774 67.7998 75.0776 67.7627 75 67.6948C74.9223 67.6269 74.8724 67.5329 74.8595 67.4306C74.3069 63.4175 75.616 58.8782 78.458 55.0494C84.6947 46.5825 94.451 43.7668 103.878 41.0432L104.582 40.8393C115.324 37.7343 126.339 35.6678 137.476 34.6684C137.534 34.6581 137.594 34.66 137.651 34.6739C137.709 34.6879 137.763 34.7136 137.81 34.7494C137.857 34.7853 137.896 34.8305 137.925 34.8822C137.953 34.9339 137.971 34.991 137.976 35.0499C137.982 35.1088 137.975 35.1681 137.956 35.2242C137.938 35.2804 137.908 35.332 137.868 35.3759C137.829 35.4198 137.78 35.455 137.726 35.4793C137.672 35.5036 137.614 35.5165 137.555 35.5171C126.478 36.5128 115.522 38.5704 104.839 41.6616L104.135 41.8656C94.8391 44.5497 85.2276 47.3259 79.1357 55.5559C76.4318 59.2335 75.1884 63.5162 75.7015 67.3122C75.7166 67.4255 75.6863 67.5401 75.6174 67.6313C75.5484 67.7224 75.4463 67.7827 75.3331 67.799H75.2805Z" fill="white"/>
<path d="M87.8526 105.397C81.7388 105.503 75.6794 104.232 70.1228 101.68C53.7878 94.075 39.9856 75.2335 46.5841 55.392C49.2945 47.2344 55.0904 39.5306 63.3402 33.1164C71.4912 26.781 81.3133 22.1891 89.2078 18.505C89.31 18.4576 89.4267 18.4525 89.5326 18.4907C89.6385 18.5289 89.7251 18.6073 89.7736 18.7089C89.8212 18.812 89.8265 18.9297 89.7884 19.0367C89.7503 19.1437 89.6717 19.2315 89.5696 19.2813C81.7146 22.9456 71.9386 27.5113 63.8665 33.7874C55.7943 40.0635 50.0511 47.662 47.4196 55.6617C40.979 75.0296 54.5115 93.4303 70.511 100.91C82.3527 106.43 93.9971 104.535 106.352 102.522L106.694 102.47C106.752 102.456 106.811 102.454 106.87 102.464C106.928 102.474 106.983 102.497 107.032 102.53C107.082 102.562 107.123 102.605 107.155 102.655C107.187 102.705 107.208 102.761 107.217 102.819C107.227 102.878 107.223 102.937 107.208 102.994C107.193 103.052 107.166 103.105 107.13 103.151C107.093 103.198 107.047 103.236 106.994 103.263C106.942 103.291 106.885 103.307 106.826 103.312L106.49 103.364C100.122 104.397 93.9642 105.397 87.8526 105.397Z" fill="white"/>
<path d="M105.134 20.6954H105.259L101.167 32.8924C101.024 32.6666 100.815 32.4899 100.569 32.3859C100.067 32.2075 99.5346 32.1325 99.0032 32.1652C98.4719 32.198 97.9526 32.338 97.4767 32.5766C97.2221 32.689 96.9932 32.8525 96.8043 33.057C96.6154 33.2614 96.4705 33.5025 96.3786 33.7653C96.2867 34.028 96.2498 34.3068 96.27 34.5845C96.2903 34.8621 96.3674 35.1326 96.4965 35.3792C97.2859 36.6949 99.2727 35.9318 100.266 35.3134L100.503 35.1687C100.523 35.2291 100.557 35.2841 100.601 35.3297C100.645 35.3753 100.7 35.4102 100.76 35.4318C100.805 35.4382 100.852 35.4382 100.898 35.4318C100.987 35.4315 101.074 35.4035 101.147 35.3517C101.22 35.2999 101.276 35.2268 101.306 35.1424L106.154 20.7217L114.266 20.8599L110.272 32.7345C110.141 32.5753 109.974 32.4491 109.786 32.3661C109.284 32.1878 108.751 32.1127 108.22 32.1455C107.689 32.1783 107.169 32.3182 106.694 32.5569C106.439 32.6693 106.21 32.8328 106.021 33.0373C105.832 33.2417 105.687 33.4828 105.595 33.7455C105.504 34.0083 105.467 34.2871 105.487 34.5647C105.507 34.8423 105.584 35.1128 105.713 35.3595C106.503 36.6752 108.483 35.9121 109.476 35.2937L109.7 35.1555C109.747 35.2061 109.806 35.2444 109.871 35.2674C109.917 35.2736 109.963 35.2736 110.009 35.2674C110.099 35.2662 110.186 35.237 110.258 35.1839C110.329 35.1308 110.383 35.0564 110.411 34.9713L115.16 20.8467L122.864 20.9783L118.877 32.8201C118.734 32.5502 118.502 32.3385 118.22 32.2214C117.718 32.045 117.187 31.9715 116.657 32.0054C116.126 32.0393 115.609 32.1799 115.134 32.4188C114.879 32.5304 114.649 32.6934 114.46 32.8978C114.27 33.1021 114.125 33.3434 114.033 33.6064C113.941 33.8694 113.904 34.1486 113.925 34.4264C113.946 34.7043 114.024 34.9749 114.154 35.2213C114.943 36.5699 116.924 35.7739 117.917 35.1555L118.147 35.0108C118.112 35.1181 118.12 35.2351 118.171 35.3362C118.221 35.4373 118.31 35.5142 118.417 35.5502H118.555C118.644 35.5505 118.731 35.5227 118.803 35.4707C118.875 35.4187 118.929 35.3452 118.956 35.2608L123.765 20.9586H123.923L125.101 16.7942L106.522 16.4456L105.134 20.6954Z" fill="#FF8F50"/>
<path d="M161.599 12.7944L160.211 16.8535H160.336L156.244 29.0242C156.1 28.7973 155.892 28.6187 155.646 28.5111C155.145 28.3346 154.613 28.2612 154.083 28.2951C153.553 28.329 153.035 28.4696 152.56 28.7084C152.305 28.8202 152.075 28.9832 151.886 29.1874C151.696 29.3916 151.551 29.6326 151.458 29.8954C151.366 30.1582 151.328 30.4372 151.348 30.7152C151.368 30.9931 151.444 31.264 151.573 31.511C152.369 32.8596 154.35 32.0636 155.343 31.4452L155.58 31.2939C155.6 31.3559 155.634 31.4125 155.68 31.4593C155.726 31.506 155.781 31.5417 155.843 31.5636H155.981C156.07 31.5639 156.157 31.536 156.229 31.484C156.301 31.432 156.355 31.3586 156.382 31.2741L161.231 16.8535L169.329 17.0246L165.422 28.6821C165.275 28.4152 165.043 28.2046 164.764 28.0834C164.261 27.9098 163.729 27.8378 163.198 27.8717C162.667 27.9056 162.148 28.0446 161.672 28.2808C161.417 28.3932 161.188 28.5567 160.999 28.7611C160.81 28.9656 160.666 29.2067 160.574 29.4694C160.482 29.7322 160.445 30.011 160.465 30.2886C160.485 30.5662 160.562 30.8367 160.692 31.0834C161.481 32.3991 163.468 31.636 164.461 31.0176L164.691 30.8728C164.673 30.9255 164.665 30.9814 164.668 31.0371C164.671 31.0929 164.685 31.1475 164.71 31.1977C164.734 31.2479 164.769 31.2927 164.811 31.3296C164.853 31.3664 164.902 31.3945 164.955 31.4123H165.093C165.182 31.412 165.269 31.384 165.343 31.3322C165.416 31.2804 165.471 31.2072 165.501 31.1228L170.231 17.0377L171.619 12.9852L161.599 12.7944Z" fill="#FF8F50"/>
<path d="M82.1756 4.53786C81.8972 4.14388 81.655 3.72552 81.4519 3.2879C81.0475 2.40512 80.8754 1.43361 80.952 0.465617C80.958 0.385721 80.9414 0.305738 80.9042 0.234785C80.867 0.163833 80.8106 0.104764 80.7414 0.0643136C80.6927 0.0343339 80.6385 0.014292 80.5819 0.00534119C80.5254 -0.00360966 80.4676 -0.00129284 80.412 0.0121583C80.3564 0.0256095 80.3039 0.0499296 80.2577 0.0837193C80.2115 0.117509 80.1725 0.160101 80.1428 0.209046C79.8024 0.781907 79.5997 1.42601 79.5507 2.09057L75.8271 12.281C75.748 12.1418 75.6482 12.0153 75.5311 11.9061C75.3292 11.724 75.0811 11.6011 74.814 11.5508C72.5048 11.0574 68.3339 13.8139 70.1496 16.4257C71.3601 18.1756 73.439 17.3862 74.7548 15.9454L75.3008 16.1428L79.7612 4.01156C79.9265 4.58173 80.1607 5.12962 80.4586 5.64309C80.7941 6.18913 81.1164 6.61675 81.3401 6.99174C81.535 7.27923 81.6403 7.61806 81.6427 7.96539C81.6234 8.36523 81.5107 8.755 81.3138 9.10351C80.8927 9.95217 80.1625 10.8206 79.6362 11.8929C79.6008 11.968 79.5869 12.0514 79.5962 12.1339C79.6055 12.2164 79.6376 12.2947 79.6888 12.36C79.7246 12.4046 79.7689 12.4417 79.819 12.4691C79.8692 12.4966 79.9242 12.5139 79.9811 12.52C80.0379 12.5261 80.0954 12.5209 80.1503 12.5048C80.2051 12.4886 80.2562 12.4618 80.3007 12.4258C81.2503 11.765 82.1047 10.9769 82.8401 10.0837C83.2832 9.51108 83.5628 8.82903 83.6492 8.11012C83.7201 7.34694 83.5498 6.58076 83.1624 5.9194C82.8137 5.35363 82.4322 4.92601 82.1756 4.53786Z" fill="#FF8F50"/>
<path d="M61.3857 48.9643C61.0233 48.6816 60.6357 48.4328 60.2278 48.2209C59.8201 48.0572 59.4026 47.9188 58.9779 47.8064C58.1685 47.6412 57.338 47.6057 56.5174 47.7012C54.9446 47.863 53.4681 48.5354 52.3136 49.6156C51.5091 50.3717 50.9674 51.3652 50.7676 52.451C50.6416 52.6801 50.557 52.9295 50.5176 53.1879C50.4598 53.6095 50.5632 54.0374 50.8071 54.3862C51.051 54.735 51.4175 54.9789 51.8333 55.0694C53.4715 55.2996 54.9319 53.3063 54.649 51.78C54.4188 50.5301 53.3333 50.5103 52.3991 50.905C52.5643 50.6883 52.7566 50.4937 52.9715 50.3261C53.9929 49.5234 55.2829 49.1421 56.5766 49.2604C57.1502 49.2866 57.71 49.4452 58.2121 49.7236C58.7143 50.0021 59.1452 50.3929 59.4713 50.8656C59.9492 51.7503 60.1357 52.7633 60.0041 53.7602C59.8397 55.8391 58.6884 58.2009 57.1029 60.4771C55.4495 62.7696 53.4524 64.7933 51.1821 66.4769C51.1075 66.5521 51.0634 66.6522 51.0584 66.7579C51.0534 66.8637 51.0877 66.9675 51.1549 67.0493C51.222 67.1312 51.3171 67.1853 51.4217 67.201C51.5264 67.2168 51.6332 67.1932 51.7215 67.1348C53.9057 65.3257 56.3266 63.8454 58.6884 61.9771C59.9158 61.0416 61.0015 59.9337 61.912 58.6877C62.8979 57.284 63.4576 55.6256 63.5238 53.9115C63.56 52.9795 63.3867 52.0512 63.0167 51.195C62.6467 50.3389 62.0893 49.5766 61.3857 48.9643Z" fill="#FF8F50"/>
<path d="M67.3733 50.7801C67.185 50.6371 66.9514 50.567 66.7155 50.5827C65.9984 50.6222 65.255 51.3196 65.5642 52.063C66.2418 53.7668 68.7615 51.8919 67.3733 50.7801Z" fill="#FF8F50"/>
<path d="M66.2998 58.3059C66.1118 58.1624 65.8779 58.0922 65.642 58.1085C64.9249 58.148 64.1881 58.8453 64.4973 59.5887C65.1749 61.2926 67.6879 59.4177 66.2998 58.3059Z" fill="#FF8F50"/>
<defs>
<linearGradient id="paint0_linear_21_196" x1="18.4655" y1="122.396" x2="34.9584" y2="108.574" gradientUnits="userSpaceOnUse">
<stop stop-color="#FDC097"/>
<stop offset="1" stop-color="#FDC097"/>
</linearGradient>
<linearGradient id="paint1_linear_21_196" x1="98.8067" y1="144.599" x2="217.323" y2="144.599" gradientUnits="userSpaceOnUse">
<stop offset="0.35" stop-color="#6084FF"/>
<stop offset="0.8" stop-color="#3E6AFF"/>
</linearGradient>
<linearGradient id="paint2_linear_21_196" x1="193.831" y1="162.757" x2="241.474" y2="162.757" gradientUnits="userSpaceOnUse">
<stop stop-color="#FDC097"/>
<stop offset="1" stop-color="#FDC097"/>
</linearGradient>
<linearGradient id="paint3_linear_21_196" x1="223.578" y1="114.614" x2="229.012" y2="114.614" gradientUnits="userSpaceOnUse">
<stop stop-color="#FDC097"/>
<stop offset="1" stop-color="#FF9C59"/>
</linearGradient>
<linearGradient id="paint4_linear_21_196" x1="231.875" y1="116.778" x2="236.638" y2="116.778" gradientUnits="userSpaceOnUse">
<stop stop-color="#FDC097"/>
<stop offset="1" stop-color="#FF9C59"/>
</linearGradient>
<linearGradient id="paint5_linear_21_196" x1="237.027" y1="119.962" x2="242.428" y2="119.962" gradientUnits="userSpaceOnUse">
<stop stop-color="#FDC097"/>
<stop offset="1" stop-color="#FF9C59"/>
</linearGradient>
<linearGradient id="paint6_linear_21_196" x1="242.059" y1="124.001" x2="247.262" y2="124.001" gradientUnits="userSpaceOnUse">
<stop stop-color="#FDC097"/>
<stop offset="1" stop-color="#FF9C59"/>
</linearGradient>
<linearGradient id="paint7_linear_21_196" x1="60.3718" y1="196.046" x2="84.8711" y2="196.046" gradientUnits="userSpaceOnUse">
<stop stop-color="#FDC097"/>
<stop offset="1" stop-color="#FDC097"/>
</linearGradient>
<linearGradient id="paint8_linear_21_196" x1="119.161" y1="123.738" x2="132.529" y2="123.738" gradientUnits="userSpaceOnUse">
<stop stop-color="#FDC097"/>
<stop offset="1" stop-color="#FDC097"/>
</linearGradient>
<linearGradient id="paint9_linear_21_196" x1="135.917" y1="100.502" x2="156.903" y2="100.502" gradientUnits="userSpaceOnUse">
<stop stop-color="#FDC097"/>
<stop offset="1" stop-color="#FDC097"/>
</linearGradient>
</defs>
</svg>
