<svg width="16" height="16" viewBox="0 0 16 16" fill="none" xmlns="http://www.w3.org/2000/svg">
<path d="M13.3337 7.99992C13.3337 7.26459 12.7357 6.66659 12.0003 6.66659H11.3337V4.66659C11.3337 2.82859 9.83833 1.33325 8.00033 1.33325C6.16233 1.33325 4.66699 2.82859 4.66699 4.66659V6.66659H4.00033C3.26499 6.66659 2.66699 7.26459 2.66699 7.99992V13.3333C2.66699 14.0686 3.26499 14.6666 4.00033 14.6666H12.0003C12.7357 14.6666 13.3337 14.0686 13.3337 13.3333V7.99992ZM6.00033 4.66659C6.00033 3.56392 6.89766 2.66659 8.00033 2.66659C9.10299 2.66659 10.0003 3.56392 10.0003 4.66659V6.66659H6.00033V4.66659Z" fill="white"/>
</svg>
