<svg width="16" height="19" viewBox="0 0 16 19" fill="none" xmlns="http://www.w3.org/2000/svg">
<path d="M10.9908 3.4543C11.0527 3.30796 11.2601 3.30796 11.3219 3.4543L12.0045 5.07009C12.0227 5.11319 12.057 5.14748 12.1001 5.16569L13.7158 5.84827C13.8622 5.91009 13.8622 6.11748 13.7158 6.1793L12.1001 6.86188C12.057 6.88008 12.0227 6.91438 12.0045 6.95747L11.3219 8.57326C11.2601 8.71961 11.0527 8.71961 10.9908 8.57326L10.3083 6.95747C10.2901 6.91438 10.2558 6.88008 10.2127 6.86188L8.59688 6.1793C8.45054 6.11748 8.45054 5.91009 8.59688 5.84827L10.2127 5.16569C10.2558 5.14748 10.2901 5.11319 10.3083 5.07009L10.9908 3.4543Z" fill="#7EF9FF"/>
<path d="M13.9138 0.391801C13.9756 0.245459 14.183 0.245459 14.2448 0.391801L14.6215 1.28337C14.6397 1.32647 14.674 1.36076 14.7171 1.37896L15.6086 1.7556C15.755 1.81743 15.755 2.02481 15.6086 2.08663L14.7171 2.46327C14.674 2.48148 14.6397 2.51577 14.6215 2.55886L14.2448 3.45043C14.183 3.59678 13.9756 3.59678 13.9138 3.45043L13.5372 2.55886C13.519 2.51577 13.4847 2.48148 13.4416 2.46327L12.55 2.08663C12.4037 2.02481 12.4037 1.81743 12.55 1.7556L13.4416 1.37896C13.4847 1.36076 13.519 1.32647 13.5372 1.28337L13.9138 0.391801Z" fill="#7EF9FF"/>
<path d="M14.0356 16.0223C14.2752 15.7288 13.9515 15.3336 13.5857 15.432C12.9292 15.6085 12.2389 15.7027 11.5267 15.7027C7.15968 15.7027 3.6195 12.1625 3.6195 7.79548C3.6195 6.76634 3.8161 5.78313 4.17381 4.88134C4.3135 4.52916 3.95796 4.16283 3.63919 4.36761C1.45019 5.77384 0 8.23016 0 11.0252C0 15.3922 3.54018 18.9324 7.90721 18.9324C10.3788 18.9324 12.5856 17.7984 14.0356 16.0223Z" fill="#7EF9FF"/>
</svg>
