<svg width="37" height="35" viewBox="0 0 37 35" fill="none" xmlns="http://www.w3.org/2000/svg">
<circle cx="10.1506" cy="14.8082" r="4.80822" fill="#FF4766"/>
<path d="M4.06368 22.413C2.01534 22.413 0 23.6379 0 25.6862C0 30.7339 4.70101 34.8259 10.5 34.8259C16.299 34.8259 21 30.7339 21 25.6862C21 23.6379 18.9847 22.413 16.9363 22.413H4.06368Z" fill="#FF4766"/>
<g filter="url(#filter0_f_3_846)">
<path d="M25.4142 9.47374C25.5122 9.24185 25.8408 9.24185 25.9387 9.47374L27.0203 12.034C27.0492 12.1023 27.1035 12.1567 27.1718 12.1855L29.7321 13.2671C29.964 13.3651 29.964 13.6937 29.7321 13.7916L27.1718 14.8732C27.1035 14.9021 27.0492 14.9564 27.0203 15.0247L25.9387 17.585C25.8408 17.8169 25.5122 17.8169 25.4142 17.585L24.3326 15.0247C24.3038 14.9564 24.2494 14.9021 24.1811 14.8732L21.6208 13.7916C21.3889 13.6937 21.3889 13.3651 21.6208 13.2671L24.1811 12.1855C24.2494 12.1567 24.3038 12.1023 24.3326 12.034L25.4142 9.47374Z" fill="#FF4766"/>
<path d="M30.0465 4.62083C30.1445 4.38894 30.4731 4.38894 30.571 4.62083L31.1678 6.03357C31.1967 6.10186 31.251 6.1562 31.3193 6.18505L32.7321 6.78185C32.9639 6.87981 32.9639 7.20842 32.7321 7.30638L31.3193 7.90319C31.251 7.93204 31.1967 7.98638 31.1678 8.05466L30.571 9.4674C30.4731 9.69929 30.1445 9.69929 30.0465 9.4674L29.4497 8.05466C29.4208 7.98638 29.3665 7.93204 29.2982 7.90319L27.8855 7.30638C27.6536 7.20842 27.6536 6.87981 27.8855 6.78185L29.2982 6.18505C29.3665 6.1562 29.4208 6.10186 29.4497 6.03357L30.0465 4.62083Z" fill="#FF4766"/>
</g>
<path d="M25.4142 9.47374C25.5122 9.24185 25.8408 9.24185 25.9387 9.47374L27.0203 12.034C27.0492 12.1023 27.1035 12.1567 27.1718 12.1855L29.7321 13.2671C29.964 13.3651 29.964 13.6937 29.7321 13.7916L27.1718 14.8732C27.1035 14.9021 27.0492 14.9564 27.0203 15.0247L25.9387 17.585C25.8408 17.8169 25.5122 17.8169 25.4142 17.585L24.3326 15.0247C24.3038 14.9564 24.2494 14.9021 24.1811 14.8732L21.6208 13.7916C21.3889 13.6937 21.3889 13.3651 21.6208 13.2671L24.1811 12.1855C24.2494 12.1567 24.3038 12.1023 24.3326 12.034L25.4142 9.47374Z" fill="#FF4766"/>
<path d="M30.0465 4.62083C30.1445 4.38894 30.4731 4.38894 30.571 4.62083L31.1678 6.03357C31.1967 6.10186 31.251 6.1562 31.3193 6.18505L32.7321 6.78185C32.9639 6.87981 32.9639 7.20842 32.7321 7.30638L31.3193 7.90319C31.251 7.93204 31.1967 7.98638 31.1678 8.05466L30.571 9.4674C30.4731 9.69929 30.1445 9.69929 30.0465 9.4674L29.4497 8.05466C29.4208 7.98638 29.3665 7.93204 29.2982 7.90319L27.8855 7.30638C27.6536 7.20842 27.6536 6.87981 27.8855 6.78185L29.2982 6.18505C29.3665 6.1562 29.4208 6.10186 29.4497 6.03357L30.0465 4.62083Z" fill="#FF4766"/>
<defs>
<filter id="filter0_f_3_846" x="17.4469" y="0.446899" width="19.4591" height="21.312" filterUnits="userSpaceOnUse" color-interpolation-filters="sRGB">
<feFlood flood-opacity="0" result="BackgroundImageFix"/>
<feBlend mode="normal" in="SourceGraphic" in2="BackgroundImageFix" result="shape"/>
<feGaussianBlur stdDeviation="2" result="effect1_foregroundBlur_3_846"/>
</filter>
</defs>
</svg>
