<svg width="37" height="43" viewBox="0 0 37 43" fill="none" xmlns="http://www.w3.org/2000/svg">
<path fill-rule="evenodd" clip-rule="evenodd" d="M4.61538 18.5161C2.06638 18.5161 0 20.5825 0 23.1315V37.9007C0 40.4498 2.06638 42.5161 4.61539 42.5161H19.3846C21.9336 42.5161 24 40.4497 24 37.9007V23.1315C24 20.5825 21.9336 18.5161 19.3846 18.5161H4.61538ZM20.1069 30.0492C20.2958 29.5302 20.0282 28.9564 19.5092 28.7675C18.9902 28.5786 18.4164 28.8462 18.2275 29.3652L15.3817 37.1844L13.632 31.8035C13.4972 31.389 13.1095 31.1095 12.6736 31.1128C12.2378 31.116 11.8542 31.4011 11.7256 31.8176L9.87739 37.8006L8.51185 35.4898C8.33399 35.1889 8.01187 35.0026 7.6623 34.9986C7.31273 34.9947 6.98647 35.1735 6.80181 35.4704L4.1544 39.7263C3.86268 40.1953 4.00637 40.8119 4.47532 41.1036C4.94428 41.3954 5.56093 41.2517 5.85264 40.7827L7.62901 37.9271L9.30507 40.7633C9.5064 41.104 9.88973 41.2939 10.2828 41.2477C10.6758 41.2015 11.0046 40.9278 11.1214 40.5497L12.7055 35.4218L14.3774 40.5638C14.5094 40.9696 14.8844 41.247 15.3111 41.2544C15.7378 41.2618 16.1222 40.9976 16.2681 40.5965L20.1069 30.0492Z" fill="#CFF068"/>
<path d="M28.4086 7.26684C28.493 7.00281 28.8666 7.00281 28.951 7.26684L30.0354 10.6595C30.0573 10.7283 30.1047 10.7861 30.1677 10.8214L32.9143 12.3548C33.1088 12.4634 33.1088 12.7434 32.9143 12.852L30.1678 14.3854C30.1047 14.4207 30.0573 14.4785 30.0354 14.5474L28.951 17.94C28.8666 18.204 28.493 18.204 28.4086 17.94L27.3242 14.5474C27.3022 14.4785 27.2549 14.4207 27.1918 14.3854L24.4452 12.852C24.2507 12.7434 24.2507 12.4634 24.4452 12.3548L27.1918 10.8214C27.2549 10.7861 27.3022 10.7283 27.3242 10.6595L28.4086 7.26684Z" fill="#CFF068"/>
<path d="M33.0441 0.848444C33.1285 0.584409 33.5021 0.584409 33.5865 0.848444L34.1858 2.72331C34.2078 2.79212 34.2551 2.85 34.3182 2.88521L35.9164 3.7775C36.1109 3.88613 36.1109 4.16605 35.9164 4.27468L34.3182 5.16697C34.2551 5.20219 34.2078 5.26006 34.1858 5.32887L33.5865 7.20374C33.5021 7.46777 33.1285 7.46777 33.0441 7.20374L32.4449 5.32887C32.4229 5.26006 32.3755 5.20219 32.3125 5.16697L30.7143 4.27468C30.5198 4.16605 30.5198 3.88613 30.7143 3.7775L32.3125 2.88521C32.3755 2.85 32.4229 2.79212 32.4449 2.72331L33.0441 0.848444Z" fill="#CFF068"/>
</svg>
