<svg width="26" height="24" viewBox="0 0 26 24" fill="none" xmlns="http://www.w3.org/2000/svg">
<path d="M11.75 8H19.25C19.6042 8 19.9008 7.88042 20.14 7.64125C20.38 7.40125 20.5 7.10417 20.5 6.75C20.5 6.39583 20.38 6.09875 20.14 5.85875C19.9008 5.61958 19.6042 5.5 19.25 5.5H11.75C11.3958 5.5 11.0992 5.61958 10.86 5.85875C10.62 6.09875 10.5 6.39583 10.5 6.75C10.5 7.10417 10.62 7.40125 10.86 7.64125C11.0992 7.88042 11.3958 8 11.75 8ZM11.75 11.75H19.25C19.6042 11.75 19.9008 11.63 20.14 11.39C20.38 11.1508 20.5 10.8542 20.5 10.5C20.5 10.1458 20.38 9.84875 20.14 9.60875C19.9008 9.36958 19.6042 9.25 19.25 9.25H11.75C11.3958 9.25 11.0992 9.36958 10.86 9.60875C10.62 9.84875 10.5 10.1458 10.5 10.5C10.5 10.8542 10.62 11.1508 10.86 11.39C11.0992 11.63 11.3958 11.75 11.75 11.75ZM11.75 15.5H15.5C15.8542 15.5 16.1513 15.38 16.3913 15.14C16.6304 14.9008 16.75 14.6042 16.75 14.25C16.75 13.8958 16.6304 13.5987 16.3913 13.3587C16.1513 13.1196 15.8542 13 15.5 13H11.75C11.3958 13 11.0992 13.1196 10.86 13.3587C10.62 13.5987 10.5 13.8958 10.5 14.25C10.5 14.6042 10.62 14.9008 10.86 15.14C11.0992 15.38 11.3958 15.5 11.75 15.5ZM6.75 8C7.10417 8 7.40125 7.88042 7.64125 7.64125C7.88042 7.40125 8 7.10417 8 6.75C8 6.39583 7.88042 6.09875 7.64125 5.85875C7.40125 5.61958 7.10417 5.5 6.75 5.5C6.39583 5.5 6.09875 5.61958 5.85875 5.85875C5.61958 6.09875 5.5 6.39583 5.5 6.75C5.5 7.10417 5.61958 7.40125 5.85875 7.64125C6.09875 7.88042 6.39583 8 6.75 8ZM6.75 11.75C7.10417 11.75 7.40125 11.63 7.64125 11.39C7.88042 11.1508 8 10.8542 8 10.5C8 10.1458 7.88042 9.84875 7.64125 9.60875C7.40125 9.36958 7.10417 9.25 6.75 9.25C6.39583 9.25 6.09875 9.36958 5.85875 9.60875C5.61958 9.84875 5.5 10.1458 5.5 10.5C5.5 10.8542 5.61958 11.1508 5.85875 11.39C6.09875 11.63 6.39583 11.75 6.75 11.75ZM6.75 15.5C7.10417 15.5 7.40125 15.38 7.64125 15.14C7.88042 14.9008 8 14.6042 8 14.25C8 13.8958 7.88042 13.5987 7.64125 13.3587C7.40125 13.1196 7.10417 13 6.75 13C6.39583 13 6.09875 13.1196 5.85875 13.3587C5.61958 13.5987 5.5 13.8958 5.5 14.25C5.5 14.6042 5.61958 14.9008 5.85875 15.14C6.09875 15.38 6.39583 15.5 6.75 15.5ZM0.5 22.4688V3C0.5 2.3125 0.745 1.72375 1.235 1.23375C1.72417 0.744583 2.3125 0.5 3 0.5H23C23.6875 0.5 24.2763 0.744583 24.7663 1.23375C25.2554 1.72375 25.5 2.3125 25.5 3V18C25.5 18.6875 25.2554 19.2763 24.7663 19.7663C24.2763 20.2554 23.6875 20.5 23 20.5H5.5L2.625 23.375C2.22917 23.7708 1.77583 23.8592 1.265 23.64C0.755 23.4217 0.5 23.0312 0.5 22.4688Z" fill="white" fill-opacity="0.75"/>
</svg>
