<svg width="51" height="46" viewBox="0 0 51 46" fill="none" xmlns="http://www.w3.org/2000/svg">
<g filter="url(#filter0_f_3_829)">
<rect x="11" y="26.3726" width="6.82353" height="8.62745" rx="1.80392" fill="#FF2DC2" fill-opacity="0.6"/>
<rect x="19.5485" y="19.6274" width="6.82353" height="15.3726" rx="1.80392" fill="#FF2DC2" fill-opacity="0.6"/>
<rect x="28.1759" y="11" width="6.82353" height="24" rx="1.80392" fill="#FF2DC2" fill-opacity="0.6"/>
</g>
<rect x="11" y="26.3726" width="6.82353" height="8.62745" rx="1.80392" fill="#FF2DC2"/>
<rect x="19.5486" y="19.6274" width="6.82353" height="15.3726" rx="1.80392" fill="#FF2DC2"/>
<rect x="28.176" y="11" width="6.82353" height="24" rx="1.80392" fill="#FF2DC2"/>
<g filter="url(#filter1_f_3_829)">
<path d="M39.4142 11.4738C39.5122 11.2419 39.8408 11.2419 39.9387 11.4738L41.0203 14.0341C41.0492 14.1024 41.1035 14.1567 41.1718 14.1856L43.7321 15.2671C43.964 15.3651 43.964 15.6937 43.7321 15.7917L41.1718 16.8733C41.1035 16.9021 41.0492 16.9564 41.0203 17.0247L39.9387 19.585C39.8408 19.8169 39.5122 19.8169 39.4142 19.585L38.3326 17.0247C38.3038 16.9564 38.2494 16.9021 38.1811 16.8733L35.6208 15.7917C35.3889 15.6937 35.3889 15.3651 35.6208 15.2671L38.1811 14.1856C38.2494 14.1567 38.3038 14.1024 38.3326 14.0341L39.4142 11.4738Z" fill="#FF2DC2"/>
<path d="M44.0465 6.62083C44.1445 6.38894 44.4731 6.38894 44.571 6.62083L45.1678 8.03357C45.1967 8.10186 45.251 8.1562 45.3193 8.18505L46.7321 8.78185C46.9639 8.87981 46.9639 9.20842 46.7321 9.30638L45.3193 9.90319C45.251 9.93204 45.1967 9.98638 45.1678 10.0547L44.571 11.4674C44.4731 11.6993 44.1445 11.6993 44.0465 11.4674L43.4497 10.0547C43.4208 9.98638 43.3665 9.93204 43.2982 9.90319L41.8855 9.30638C41.6536 9.20842 41.6536 8.87981 41.8855 8.78185L43.2982 8.18505C43.3665 8.1562 43.4208 8.10186 43.4497 8.03357L44.0465 6.62083Z" fill="#FF2DC2"/>
</g>
<path d="M39.4142 11.4738C39.5122 11.2419 39.8408 11.2419 39.9387 11.4738L41.0203 14.0341C41.0492 14.1024 41.1035 14.1567 41.1718 14.1856L43.7321 15.2671C43.964 15.3651 43.964 15.6937 43.7321 15.7917L41.1718 16.8733C41.1035 16.9021 41.0492 16.9564 41.0203 17.0247L39.9387 19.585C39.8408 19.8169 39.5122 19.8169 39.4142 19.585L38.3326 17.0247C38.3038 16.9564 38.2494 16.9021 38.1811 16.8733L35.6208 15.7917C35.3889 15.6937 35.3889 15.3651 35.6208 15.2671L38.1811 14.1856C38.2494 14.1567 38.3038 14.1024 38.3326 14.0341L39.4142 11.4738Z" fill="#FF2DC2"/>
<path d="M44.0465 6.62083C44.1445 6.38894 44.4731 6.38894 44.571 6.62083L45.1678 8.03357C45.1967 8.10186 45.251 8.1562 45.3193 8.18505L46.7321 8.78185C46.9639 8.87981 46.9639 9.20842 46.7321 9.30638L45.3193 9.90319C45.251 9.93204 45.1967 9.98638 45.1678 10.0547L44.571 11.4674C44.4731 11.6993 44.1445 11.6993 44.0465 11.4674L43.4497 10.0547C43.4208 9.98638 43.3665 9.93204 43.2982 9.90319L41.8855 9.30638C41.6536 9.20842 41.6536 8.87981 41.8855 8.78185L43.2982 8.18505C43.3665 8.1562 43.4208 8.10186 43.4497 8.03357L44.0465 6.62083Z" fill="#FF2DC2"/>
<defs>
<filter id="filter0_f_3_829" x="-3.05176e-05" y="0" width="45.9995" height="46" filterUnits="userSpaceOnUse" color-interpolation-filters="sRGB">
<feFlood flood-opacity="0" result="BackgroundImageFix"/>
<feBlend mode="normal" in="SourceGraphic" in2="BackgroundImageFix" result="shape"/>
<feGaussianBlur stdDeviation="5.5" result="effect1_foregroundBlur_3_829"/>
</filter>
<filter id="filter1_f_3_829" x="31.4469" y="2.44691" width="19.459" height="21.312" filterUnits="userSpaceOnUse" color-interpolation-filters="sRGB">
<feFlood flood-opacity="0" result="BackgroundImageFix"/>
<feBlend mode="normal" in="SourceGraphic" in2="BackgroundImageFix" result="shape"/>
<feGaussianBlur stdDeviation="2" result="effect1_foregroundBlur_3_829"/>
</filter>
</defs>
</svg>
