<svg width="22" height="22" viewBox="0 0 22 22" fill="none" xmlns="http://www.w3.org/2000/svg">
<g clip-path="url(#clip0_815_10970)">
<path d="M10.9998 3.92191C11.1619 3.92191 11.3173 3.85752 11.4319 3.74292C11.5465 3.62831 11.6109 3.47288 11.6109 3.3108V1.1658C11.6109 1.00372 11.5465 0.848283 11.4319 0.733678C11.3173 0.619072 11.1619 0.554688 10.9998 0.554688C10.8377 0.554688 10.6823 0.619072 10.5677 0.733678C10.4531 0.848283 10.3887 1.00372 10.3887 1.1658V3.3108C10.3887 3.47288 10.4531 3.62831 10.5677 3.74292C10.6823 3.85752 10.8377 3.92191 10.9998 3.92191Z" fill="#FFCB5A"/>
<path d="M10.9998 18.0781C10.8377 18.0781 10.6823 18.1425 10.5677 18.2571C10.4531 18.3717 10.3887 18.5272 10.3887 18.6892V20.8342C10.3887 20.9963 10.4531 21.1518 10.5677 21.2664C10.6823 21.381 10.8377 21.4453 10.9998 21.4453C11.1619 21.4453 11.3173 21.381 11.4319 21.2664C11.5465 21.1518 11.6109 20.9963 11.6109 20.8342V18.6892C11.6109 18.5272 11.5465 18.3717 11.4319 18.2571C11.3173 18.1425 11.1619 18.0781 10.9998 18.0781Z" fill="#FFCB5A"/>
<path d="M5.1332 5.99292C5.25011 6.09303 5.40049 6.14535 5.55429 6.13941C5.70809 6.13347 5.85399 6.06971 5.96283 5.96087C6.07166 5.85204 6.13542 5.70614 6.14136 5.55234C6.1473 5.39854 6.09499 5.24816 5.99487 5.13125L4.47932 3.6157C4.36241 3.51558 4.21203 3.46327 4.05823 3.46921C3.90443 3.47515 3.75853 3.53891 3.64969 3.64774C3.54086 3.75658 3.4771 3.90247 3.47116 4.05627C3.46522 4.21008 3.51753 4.36046 3.61765 4.47736L5.1332 5.99292Z" fill="#FFCB5A"/>
<path d="M16.866 16.0063C16.7491 15.9062 16.5987 15.8539 16.4449 15.8598C16.2911 15.8658 16.1452 15.9295 16.0364 16.0384C15.9276 16.1472 15.8638 16.2931 15.8579 16.4469C15.8519 16.6007 15.9043 16.7511 16.0044 16.868L17.5199 18.3835C17.6368 18.4837 17.7872 18.536 17.941 18.53C18.0948 18.5241 18.2407 18.4603 18.3495 18.3515C18.4584 18.2427 18.5221 18.0968 18.5281 17.943C18.534 17.7892 18.4817 17.6388 18.3816 17.5219L16.866 16.0063Z" fill="#FFCB5A"/>
<path d="M3.92386 10.9978C3.92386 10.8358 3.85948 10.6803 3.74487 10.5657C3.63027 10.4511 3.47483 10.3867 3.31275 10.3867H1.16775C1.00567 10.3867 0.850237 10.4511 0.735631 10.5657C0.621025 10.6803 0.556641 10.8358 0.556641 10.9978C0.556641 11.1599 0.621025 11.3153 0.735631 11.43C0.850237 11.5446 1.00567 11.6089 1.16775 11.6089H3.31275C3.47483 11.6089 3.63027 11.5446 3.74487 11.43C3.85948 11.3153 3.92386 11.1599 3.92386 10.9978Z" fill="#FFCB5A"/>
<path d="M20.8323 10.3867H18.6873C18.5252 10.3867 18.3698 10.4511 18.2552 10.5657C18.1406 10.6803 18.0762 10.8358 18.0762 10.9978C18.0762 11.1599 18.1406 11.3153 18.2552 11.43C18.3698 11.5446 18.5252 11.6089 18.6873 11.6089H20.8323C20.9944 11.6089 21.1498 11.5446 21.2644 11.43C21.379 11.3153 21.4434 11.1599 21.4434 10.9978C21.4434 10.8358 21.379 10.6803 21.2644 10.5657C21.1498 10.4511 20.9944 10.3867 20.8323 10.3867Z" fill="#FFCB5A"/>
<path d="M5.1332 16.0063L3.61765 17.5219C3.51753 17.6388 3.46522 17.7892 3.47116 17.943C3.4771 18.0968 3.54086 18.2427 3.64969 18.3515C3.75853 18.4603 3.90443 18.5241 4.05823 18.53C4.21203 18.536 4.36241 18.4837 4.47932 18.3835L5.99487 16.868C6.09499 16.7511 6.1473 16.6007 6.14136 16.4469C6.13542 16.2931 6.07166 16.1472 5.96283 16.0384C5.85399 15.9295 5.70809 15.8658 5.55429 15.8598C5.40049 15.8539 5.25011 15.9062 5.1332 16.0063Z" fill="#FFCB5A"/>
<path d="M16.866 5.99292L18.3816 4.47736C18.4817 4.36046 18.534 4.21008 18.5281 4.05627C18.5221 3.90247 18.4584 3.75658 18.3495 3.64774C18.2407 3.53891 18.0948 3.47515 17.941 3.46921C17.7872 3.46327 17.6368 3.51558 17.5199 3.6157L16.0044 5.13125C15.9043 5.24816 15.8519 5.39854 15.8579 5.55234C15.8638 5.70614 15.9276 5.85204 16.0364 5.96087C16.1452 6.06971 16.2911 6.13347 16.4449 6.13941C16.5987 6.14535 16.7491 6.09303 16.866 5.99292Z" fill="#FFCB5A"/>
<path d="M10.9998 17.1089C14.3749 17.1089 17.1109 14.3729 17.1109 10.9978C17.1109 7.62276 14.3749 4.88672 10.9998 4.88672C7.62471 4.88672 4.88867 7.62276 4.88867 10.9978C4.88867 14.3729 7.62471 17.1089 10.9998 17.1089Z" fill="#FFCB5A"/>
</g>
<defs>
<clipPath id="clip0_815_10970">
<rect width="22" height="22" fill="white"/>
</clipPath>
</defs>
</svg>
