<svg width="14" height="14" viewBox="0 0 14 14" fill="none" xmlns="http://www.w3.org/2000/svg">
<g filter="url(#filter0_d_815_11450)">
<path d="M7 14C3.13359 14 0 10.8664 0 7C0 3.13359 3.13359 0 7 0C10.8664 0 14 3.13359 14 7C14 10.8664 10.8664 14 7 14ZM6.34375 7C6.34375 7.21875 6.45312 7.42383 6.63633 7.52227L9.26133 9.27227C9.56211 9.49648 9.96953 9.41445 10.1473 9.11367C10.3715 8.81289 10.2895 8.40547 9.98867 8.20312L7.65625 6.65V3.28125C7.65625 2.91758 7.36367 2.625 6.97539 2.625C6.63633 2.625 6.31914 2.91758 6.31914 3.28125L6.34375 7Z" fill="#848BBD"/>
</g>
<defs>
<filter id="filter0_d_815_11450" x="-4" y="0" width="22" height="22" filterUnits="userSpaceOnUse" color-interpolation-filters="sRGB">
<feFlood flood-opacity="0" result="BackgroundImageFix"/>
<feColorMatrix in="SourceAlpha" type="matrix" values="0 0 0 0 0 0 0 0 0 0 0 0 0 0 0 0 0 0 127 0" result="hardAlpha"/>
<feOffset dy="4"/>
<feGaussianBlur stdDeviation="2"/>
<feComposite in2="hardAlpha" operator="out"/>
<feColorMatrix type="matrix" values="0 0 0 0 0 0 0 0 0 0 0 0 0 0 0 0 0 0 0.25 0"/>
<feBlend mode="normal" in2="BackgroundImageFix" result="effect1_dropShadow_815_11450"/>
<feBlend mode="normal" in="SourceGraphic" in2="effect1_dropShadow_815_11450" result="shape"/>
</filter>
</defs>
</svg>
